<svg width="3119" height="1427" viewBox="0 0 3119 1427" fill="none" xmlns="http://www.w3.org/2000/svg">
<path d="M1095.93 920.859C1095.93 924.426 1095.33 927.681 1094.11 930.625C1092.89 933.569 1091.23 936.103 1089.14 938.226C1087.05 940.32 1084.58 941.948 1081.75 943.109C1078.95 944.269 1075.93 944.849 1072.71 944.849C1069.51 944.849 1066.49 944.255 1063.66 943.066C1060.86 941.877 1058.4 940.221 1056.28 938.098C1054.18 935.975 1052.52 933.456 1051.31 930.54C1050.09 927.596 1049.48 924.369 1049.48 920.859V880.437H1061.12V901.667C1061.74 900.874 1062.49 900.167 1063.37 899.544C1064.27 898.921 1065.23 898.412 1066.25 898.015C1067.3 897.619 1068.38 897.322 1069.48 897.124C1070.58 896.897 1071.66 896.784 1072.71 896.784C1075.93 896.784 1078.95 897.393 1081.75 898.61C1084.58 899.799 1087.05 901.469 1089.14 903.62C1091.23 905.771 1092.89 908.319 1094.11 911.263C1095.33 914.179 1095.93 917.377 1095.93 920.859ZM1084.26 920.859C1084.26 919.104 1083.95 917.476 1083.32 915.976C1082.73 914.448 1081.91 913.131 1080.86 912.027C1079.81 910.923 1078.58 910.06 1077.17 909.437C1075.78 908.814 1074.29 908.503 1072.71 908.503C1071.12 908.503 1069.62 908.857 1068.21 909.565C1066.82 910.244 1065.6 911.164 1064.56 912.325C1063.51 913.457 1062.69 914.773 1062.09 916.273C1061.5 917.745 1061.2 919.274 1061.2 920.859C1061.2 922.614 1061.5 924.242 1062.09 925.742C1062.69 927.242 1063.51 928.545 1064.56 929.649C1065.6 930.752 1066.82 931.63 1068.21 932.281C1069.62 932.904 1071.12 933.215 1072.71 933.215C1074.29 933.215 1075.78 932.904 1077.17 932.281C1078.58 931.63 1079.81 930.752 1080.86 929.649C1081.91 928.545 1082.73 927.242 1083.32 925.742C1083.95 924.242 1084.26 922.614 1084.26 920.859ZM1113.34 961.324V949.648L1119.8 949.732C1120.93 949.732 1122.02 949.548 1123.07 949.18C1124.11 948.812 1125.08 948.303 1125.95 947.652C1126.86 947.001 1127.65 946.222 1128.33 945.317C1129.01 944.439 1129.56 943.477 1129.99 942.429C1128.71 942.967 1127.41 943.505 1126.08 944.043C1124.78 944.581 1123.46 944.849 1122.13 944.849C1119.33 944.849 1116.7 944.354 1114.23 943.363C1111.77 942.373 1109.61 940.971 1107.74 939.16C1105.9 937.32 1104.44 935.098 1103.36 932.493C1102.32 929.861 1101.79 926.917 1101.79 923.662V898.525H1113.34V923.662C1113.34 925.275 1113.57 926.69 1114.02 927.908C1114.5 929.097 1115.14 930.101 1115.93 930.922C1116.73 931.715 1117.65 932.309 1118.69 932.706C1119.77 933.102 1120.91 933.3 1122.13 933.3C1123.32 933.3 1124.44 933.031 1125.49 932.493C1126.56 931.927 1127.5 931.191 1128.29 930.285C1129.08 929.38 1129.7 928.361 1130.16 927.228C1130.61 926.068 1130.84 924.879 1130.84 923.662V898.525H1142.51V938.268C1142.48 941.467 1141.86 944.467 1140.64 947.27C1139.43 950.072 1137.76 952.521 1135.63 954.615C1133.54 956.71 1131.09 958.366 1128.29 959.583C1125.49 960.801 1122.49 961.409 1119.29 961.409L1113.34 961.324Z" fill="white"/>
<path d="M839.268 793.911C831.064 800.966 821.875 806.381 811.703 810.154C801.53 813.928 790.988 815.815 780.077 815.815C771.709 815.815 763.628 814.708 755.835 812.492C748.123 810.359 740.863 807.324 734.053 803.386C727.326 799.366 721.173 794.567 715.595 788.988C710.016 783.41 705.217 777.257 701.197 770.53C697.259 763.721 694.183 756.46 691.968 748.749C689.835 740.955 688.768 732.874 688.768 724.506C688.768 716.138 689.835 708.058 691.968 700.264C694.183 692.47 697.259 685.21 701.197 678.483C705.217 671.674 710.016 665.48 715.595 659.901C721.173 654.323 727.326 649.564 734.053 645.626C740.863 641.607 748.123 638.53 755.835 636.397C763.628 634.182 771.709 633.075 780.077 633.075C790.988 633.075 801.53 634.961 811.703 638.735C821.875 642.427 831.064 647.842 839.268 654.979L820.563 685.743C815.394 680.165 809.282 675.899 802.227 672.945C795.172 669.91 787.788 668.392 780.077 668.392C772.283 668.392 764.982 669.869 758.173 672.822C751.363 675.776 745.416 679.795 740.329 684.882C735.243 689.886 731.223 695.834 728.27 702.725C725.316 709.534 723.84 716.795 723.84 724.506C723.84 732.218 725.316 739.478 728.27 746.288C731.223 753.015 735.243 758.921 740.329 764.008C745.416 769.094 751.363 773.114 758.173 776.067C764.982 779.021 772.283 780.498 780.077 780.498C787.788 780.498 795.172 779.021 802.227 776.067C809.282 773.032 815.394 768.725 820.563 763.146L839.268 793.911ZM903.996 779.759C905.308 780.169 906.621 780.456 907.934 780.621C909.246 780.703 910.559 780.744 911.871 780.744C915.153 780.744 918.311 780.292 921.347 779.39C924.382 778.488 927.213 777.216 929.838 775.575C932.545 773.852 934.924 771.801 936.975 769.422C939.108 766.961 940.831 764.254 942.144 761.301L966.755 786.035C963.638 790.465 960.028 794.444 955.926 797.972C951.906 801.499 947.517 804.494 942.759 806.955C938.083 809.416 933.119 811.262 927.869 812.492C922.7 813.805 917.368 814.461 911.871 814.461C902.601 814.461 893.864 812.739 885.66 809.293C877.538 805.847 870.401 801.048 864.248 794.895C858.177 788.742 853.378 781.441 849.85 772.991C846.323 764.459 844.559 755.107 844.559 744.934C844.559 734.515 846.323 724.999 849.85 716.385C853.378 707.771 858.177 700.428 864.248 694.357C870.401 688.286 877.538 683.569 885.66 680.206C893.864 676.842 902.601 675.16 911.871 675.16C917.368 675.16 922.742 675.817 927.992 677.129C933.242 678.442 938.206 680.329 942.882 682.79C947.64 685.251 952.07 688.286 956.172 691.896C960.274 695.424 963.884 699.403 967.001 703.833L903.996 779.759ZM921.224 710.478C919.665 709.904 918.106 709.534 916.548 709.37C915.071 709.206 913.512 709.124 911.871 709.124C907.277 709.124 902.929 709.986 898.827 711.708C894.807 713.349 891.28 715.728 888.244 718.846C885.291 721.963 882.953 725.737 881.23 730.167C879.507 734.515 878.646 739.437 878.646 744.934C878.646 746.164 878.687 747.559 878.769 749.118C878.933 750.677 879.138 752.276 879.384 753.917C879.712 755.476 880.082 756.994 880.492 758.47C880.902 759.947 881.435 761.26 882.092 762.408L921.224 710.478ZM1110.36 812H1102.24L1089.2 793.911C1086 796.782 1082.59 799.489 1078.98 802.033C1075.46 804.494 1071.72 806.668 1067.79 808.555C1063.85 810.359 1059.79 811.795 1055.6 812.862C1051.5 813.928 1047.32 814.461 1043.05 814.461C1033.78 814.461 1025.04 812.739 1016.84 809.293C1008.72 805.765 1001.58 800.925 995.428 794.772C989.357 788.537 984.557 781.195 981.03 772.745C977.502 764.213 975.738 754.943 975.738 744.934C975.738 735.007 977.502 725.778 981.03 717.246C984.557 708.714 989.357 701.331 995.428 695.096C1001.58 688.861 1008.72 683.979 1016.84 680.452C1025.04 676.924 1033.78 675.16 1043.05 675.16C1046 675.16 1049.04 675.406 1052.16 675.899C1055.36 676.391 1058.43 677.211 1061.39 678.36C1064.42 679.426 1067.25 680.862 1069.88 682.667C1072.5 684.472 1074.72 686.687 1076.52 689.312V627.783H1110.36V812ZM1076.52 744.934C1076.52 740.34 1075.62 735.91 1073.82 731.644C1072.09 727.296 1069.71 723.481 1066.68 720.199C1063.64 716.836 1060.07 714.17 1055.97 712.201C1051.95 710.15 1047.64 709.124 1043.05 709.124C1038.46 709.124 1034.11 709.945 1030.01 711.585C1025.99 713.226 1022.46 715.605 1019.42 718.723C1016.47 721.758 1014.13 725.491 1012.41 729.921C1010.69 734.351 1009.83 739.355 1009.83 744.934C1009.83 749.774 1010.69 754.368 1012.41 758.716C1014.13 763.064 1016.47 766.879 1019.42 770.161C1022.46 773.442 1025.99 776.026 1030.01 777.913C1034.11 779.8 1038.46 780.744 1043.05 780.744C1047.64 780.744 1051.95 779.759 1055.97 777.79C1060.07 775.739 1063.64 773.073 1066.68 769.792C1069.71 766.428 1072.09 762.613 1073.82 758.347C1075.62 753.999 1076.52 749.528 1076.52 744.934ZM1263.69 812H1255.57L1242.53 793.911C1239.33 796.782 1235.92 799.489 1232.31 802.033C1228.79 804.494 1225.05 806.668 1221.11 808.555C1217.18 810.359 1213.12 811.795 1208.93 812.862C1204.83 813.928 1200.65 814.461 1196.38 814.461C1187.11 814.461 1178.37 812.903 1170.17 809.785C1162.05 806.668 1154.91 802.156 1148.76 796.249C1142.69 790.26 1137.89 782.959 1134.36 774.345C1130.83 765.731 1129.07 755.927 1129.07 744.934C1129.07 734.679 1130.83 725.286 1134.36 716.754C1137.89 708.14 1142.69 700.756 1148.76 694.603C1154.91 688.45 1162.05 683.692 1170.17 680.329C1178.37 676.883 1187.11 675.16 1196.38 675.16C1200.65 675.16 1204.87 675.694 1209.06 676.76C1213.24 677.827 1217.3 679.303 1221.24 681.19C1225.18 683.077 1228.91 685.292 1232.44 687.835C1236.05 690.378 1239.41 693.127 1242.53 696.08L1255.57 680.452H1263.69V812ZM1229.85 744.934C1229.85 740.34 1228.95 735.91 1227.14 731.644C1225.42 727.296 1223.04 723.481 1220.01 720.199C1216.97 716.836 1213.4 714.17 1209.3 712.201C1205.28 710.15 1200.97 709.124 1196.38 709.124C1191.79 709.124 1187.44 709.904 1183.34 711.462C1179.32 713.021 1175.79 715.318 1172.75 718.353C1169.8 721.389 1167.46 725.163 1165.74 729.675C1164.02 734.105 1163.15 739.191 1163.15 744.934C1163.15 750.677 1164.02 755.804 1165.74 760.316C1167.46 764.746 1169.8 768.479 1172.75 771.514C1175.79 774.55 1179.32 776.847 1183.34 778.406C1187.44 779.964 1191.79 780.744 1196.38 780.744C1200.97 780.744 1205.28 779.759 1209.3 777.79C1213.4 775.739 1216.97 773.073 1220.01 769.792C1223.04 766.428 1225.42 762.613 1227.14 758.347C1228.95 753.999 1229.85 749.528 1229.85 744.934ZM1323.01 812H1289.41V680.206H1297.53L1308.61 695.834C1314.02 690.912 1320.18 687.138 1327.07 684.513C1333.96 681.805 1341.1 680.452 1348.48 680.452H1378.14V713.923H1348.48C1344.95 713.923 1341.63 714.58 1338.51 715.892C1335.39 717.205 1332.69 719.01 1330.39 721.307C1328.09 723.604 1326.29 726.311 1324.98 729.429C1323.66 732.546 1323.01 735.869 1323.01 739.396V812ZM1538.23 793.911C1530.03 800.966 1520.84 806.381 1510.67 810.154C1500.5 813.928 1489.95 815.815 1479.04 815.815C1470.68 815.815 1462.59 814.708 1454.8 812.492C1447.09 810.359 1439.83 807.324 1433.02 803.386C1426.29 799.366 1420.14 794.567 1414.56 788.988C1408.98 783.41 1404.18 777.257 1400.16 770.53C1396.23 763.721 1393.15 756.46 1390.93 748.749C1388.8 740.955 1387.73 732.874 1387.73 724.506C1387.73 716.138 1388.8 708.058 1390.93 700.264C1393.15 692.47 1396.23 685.21 1400.16 678.483C1404.18 671.674 1408.98 665.48 1414.56 659.901C1420.14 654.323 1426.29 649.564 1433.02 645.626C1439.83 641.607 1447.09 638.53 1454.8 636.397C1462.59 634.182 1470.68 633.075 1479.04 633.075C1489.95 633.075 1500.5 634.961 1510.67 638.735C1520.84 642.427 1530.03 647.842 1538.23 654.979L1519.53 685.743C1514.36 680.165 1508.25 675.899 1501.19 672.945C1494.14 669.91 1486.76 668.392 1479.04 668.392C1471.25 668.392 1463.95 669.869 1457.14 672.822C1450.33 675.776 1444.38 679.795 1439.3 684.882C1434.21 689.886 1430.19 695.834 1427.24 702.725C1424.28 709.534 1422.81 716.795 1422.81 724.506C1422.81 732.218 1424.28 739.478 1427.24 746.288C1430.19 753.015 1434.21 758.921 1439.3 764.008C1444.38 769.094 1450.33 773.114 1457.14 776.067C1463.95 779.021 1471.25 780.498 1479.04 780.498C1486.76 780.498 1494.14 779.021 1501.19 776.067C1508.25 773.032 1514.36 768.725 1519.53 763.146L1538.23 793.911ZM1677.9 744.934C1677.9 754.778 1676.14 763.967 1672.61 772.499C1669.09 780.949 1664.29 788.291 1658.22 794.526C1652.14 800.679 1645.01 805.56 1636.8 809.17C1628.68 812.698 1619.94 814.461 1610.59 814.461C1601.32 814.461 1592.58 812.698 1584.38 809.17C1576.26 805.56 1569.12 800.679 1562.97 794.526C1556.9 788.291 1552.1 780.949 1548.57 772.499C1545.04 763.967 1543.28 754.778 1543.28 744.934C1543.28 734.925 1545.04 725.655 1548.57 717.123C1552.1 708.591 1556.9 701.248 1562.97 695.096C1569.12 688.861 1576.26 683.979 1584.38 680.452C1592.58 676.924 1601.32 675.16 1610.59 675.16C1619.94 675.16 1628.68 676.842 1636.8 680.206C1645.01 683.487 1652.14 688.204 1658.22 694.357C1664.29 700.428 1669.09 707.771 1672.61 716.385C1676.14 724.917 1677.9 734.433 1677.9 744.934ZM1644.06 744.934C1644.06 739.519 1643.16 734.638 1641.36 730.29C1639.63 725.86 1637.25 722.086 1634.22 718.969C1631.18 715.769 1627.61 713.349 1623.51 711.708C1619.49 709.986 1615.19 709.124 1610.59 709.124C1606 709.124 1601.65 709.986 1597.55 711.708C1593.53 713.349 1590 715.769 1586.96 718.969C1584.01 722.086 1581.67 725.86 1579.95 730.29C1578.23 734.638 1577.37 739.519 1577.37 744.934C1577.37 750.02 1578.23 754.737 1579.95 759.086C1581.67 763.434 1584.01 767.207 1586.96 770.407C1590 773.606 1593.53 776.149 1597.55 778.036C1601.65 779.841 1606 780.744 1610.59 780.744C1615.19 780.744 1619.49 779.882 1623.51 778.159C1627.61 776.437 1631.18 774.016 1634.22 770.899C1637.25 767.782 1639.63 764.008 1641.36 759.578C1643.16 755.148 1644.06 750.266 1644.06 744.934ZM1730.08 812H1696.49V680.206H1704.61L1715.68 693.004C1721.1 688.081 1727.21 684.308 1734.02 681.682C1740.91 678.975 1748.09 677.621 1755.55 677.621C1763.59 677.621 1771.18 679.18 1778.32 682.298C1785.46 685.333 1791.69 689.558 1797.02 694.973C1802.36 700.305 1806.54 706.581 1809.58 713.8C1812.69 720.938 1814.25 728.567 1814.25 736.689V812H1780.66V736.689C1780.66 733.243 1780 730.003 1778.69 726.967C1777.38 723.85 1775.57 721.143 1773.27 718.846C1770.98 716.549 1768.31 714.744 1765.28 713.431C1762.24 712.119 1759 711.462 1755.55 711.462C1752.03 711.462 1748.7 712.119 1745.59 713.431C1742.47 714.744 1739.76 716.549 1737.46 718.846C1735.17 721.143 1733.36 723.85 1732.05 726.967C1730.74 730.003 1730.08 733.243 1730.08 736.689V812ZM1902.61 812C1894.49 812 1886.86 810.483 1879.72 807.447C1872.58 804.33 1866.31 800.105 1860.89 794.772C1855.56 789.358 1851.33 783.082 1848.22 775.944C1845.18 768.807 1843.66 761.177 1843.66 753.056V713.923H1827.3V680.452H1843.66V627.783H1877.13V680.452H1928.08V713.923H1877.13V753.056C1877.13 756.583 1877.79 759.906 1879.1 763.023C1880.42 766.059 1882.22 768.725 1884.52 771.022C1886.82 773.319 1889.52 775.165 1892.64 776.56C1895.76 777.872 1899.08 778.529 1902.61 778.529H1928.08V812H1902.61ZM1999.45 779.759C2000.77 780.169 2002.08 780.456 2003.39 780.621C2004.7 780.703 2006.02 780.744 2007.33 780.744C2010.61 780.744 2013.77 780.292 2016.8 779.39C2019.84 778.488 2022.67 777.216 2025.3 775.575C2028 773.852 2030.38 771.801 2032.43 769.422C2034.57 766.961 2036.29 764.254 2037.6 761.301L2062.21 786.035C2059.1 790.465 2055.49 794.444 2051.38 797.972C2047.36 801.499 2042.98 804.494 2038.22 806.955C2033.54 809.416 2028.58 811.262 2023.33 812.492C2018.16 813.805 2012.83 814.461 2007.33 814.461C1998.06 814.461 1989.32 812.739 1981.12 809.293C1973 805.847 1965.86 801.048 1959.71 794.895C1953.64 788.742 1948.84 781.441 1945.31 772.991C1941.78 764.459 1940.02 755.107 1940.02 744.934C1940.02 734.515 1941.78 724.999 1945.31 716.385C1948.84 707.771 1953.64 700.428 1959.71 694.357C1965.86 688.286 1973 683.569 1981.12 680.206C1989.32 676.842 1998.06 675.16 2007.33 675.16C2012.83 675.16 2018.2 675.817 2023.45 677.129C2028.7 678.442 2033.66 680.329 2038.34 682.79C2043.1 685.251 2047.53 688.286 2051.63 691.896C2055.73 695.424 2059.34 699.403 2062.46 703.833L1999.45 779.759ZM2016.68 710.478C2015.12 709.904 2013.56 709.534 2012.01 709.37C2010.53 709.206 2008.97 709.124 2007.33 709.124C2002.74 709.124 1998.39 709.986 1994.29 711.708C1990.27 713.349 1986.74 715.728 1983.7 718.846C1980.75 721.963 1978.41 725.737 1976.69 730.167C1974.97 734.515 1974.1 739.437 1974.1 744.934C1974.1 746.164 1974.14 747.559 1974.23 749.118C1974.39 750.677 1974.6 752.276 1974.84 753.917C1975.17 755.476 1975.54 756.994 1975.95 758.47C1976.36 759.947 1976.89 761.26 1977.55 762.408L2016.68 710.478ZM2151.8 812H2075.01V778.529H2151.8C2154.1 778.529 2156.06 777.708 2157.71 776.067C2159.35 774.427 2160.17 772.458 2160.17 770.161C2160.17 767.782 2159.35 766.223 2157.71 765.485C2156.06 764.746 2154.1 764.377 2151.8 764.377H2116.85C2111.03 764.377 2105.57 763.269 2100.48 761.054C2095.4 758.839 2090.97 755.845 2087.19 752.071C2083.42 748.215 2080.43 743.744 2078.21 738.658C2076.08 733.572 2075.01 728.116 2075.01 722.291C2075.01 716.467 2076.08 711.011 2078.21 705.925C2080.43 700.838 2083.42 696.408 2087.19 692.634C2090.97 688.861 2095.4 685.907 2100.48 683.774C2105.57 681.559 2111.03 680.452 2116.85 680.452H2184.9V713.923H2116.85C2114.55 713.923 2112.58 714.744 2110.94 716.385C2109.3 718.025 2108.48 719.994 2108.48 722.291C2108.48 724.67 2109.3 726.721 2110.94 728.444C2112.58 730.085 2114.55 730.905 2116.85 730.905H2151.8C2157.54 730.905 2162.96 731.89 2168.04 733.859C2173.13 735.746 2177.56 738.412 2181.33 741.857C2185.11 745.303 2188.1 749.446 2190.32 754.286C2192.53 759.127 2193.64 764.418 2193.64 770.161C2193.64 775.985 2192.53 781.441 2190.32 786.527C2188.1 791.532 2185.11 795.962 2181.33 799.818C2177.56 803.591 2173.13 806.586 2168.04 808.801C2162.96 810.934 2157.54 812 2151.8 812ZM2277.69 812C2269.57 812 2261.94 810.483 2254.8 807.447C2247.66 804.33 2241.38 800.105 2235.97 794.772C2230.64 789.358 2226.41 783.082 2223.3 775.944C2220.26 768.807 2218.74 761.177 2218.74 753.056V713.923H2202.38V680.452H2218.74V627.783H2252.21V680.452H2303.16V713.923H2252.21V753.056C2252.21 756.583 2252.87 759.906 2254.18 763.023C2255.5 766.059 2257.3 768.725 2259.6 771.022C2261.89 773.319 2264.6 775.165 2267.72 776.56C2270.84 777.872 2274.16 778.529 2277.69 778.529H2303.16V812H2277.69Z" fill="white"/>
<path d="M1658.23 858.001C1654.49 857.976 1650.5 859.028 1648.1 860.628C1641.93 864.747 1619.26 935.259 1609.81 971.492C1609.81 971.492 1607.76 979.035 1605.05 996.393C1604.62 999.211 1603.18 1010.25 1602.55 1013.66C1600.2 1026.45 1591.05 1033.31 1583.16 1031.8C1573.29 1029.92 1571.88 1015.29 1574.52 1004.4C1577.42 992.464 1587.24 978.985 1598.55 982.254C1604 983.524 1606.82 982.884 1607.18 979.251C1607.65 974.556 1602.05 971.742 1602.05 971.742C1580.36 960.826 1560.98 978.684 1556 1003.9C1550.19 1033.33 1568.38 1056.72 1597.92 1039.94C1607.17 1034.69 1606.67 1046.95 1627.45 1046.19C1642.56 1044.72 1651.19 1033.56 1643.34 1027.42C1638.21 1023.4 1634.75 1031.28 1626.2 1030.18C1607.93 1027.83 1628.38 974.78 1638.96 941.711C1647.99 913.508 1658.04 893.252 1666.62 870.389C1670.06 861.194 1664.48 858.04 1658.23 858.001ZM1328.15 864.007C1296.79 864.838 1238.57 894.772 1194.64 929.449C1176.62 945.11 1166.24 948.829 1177.99 961.356C1188.43 971.797 1195.14 963.859 1195.14 963.859C1205.06 956.026 1226.46 934.133 1240.56 923.692C1260.63 908.822 1288.34 887.39 1312.88 881.649C1332.35 876.714 1338.27 882.455 1335.65 902.295C1334.12 919.323 1321.01 957.601 1321.01 957.601C1321.01 957.601 1300.86 966.625 1294.86 968.863C1290.17 970.604 1285.27 969.418 1284.73 980.125C1284.49 991.606 1291.45 987.282 1296.11 985.505C1299.72 984.128 1308.22 980.059 1311.38 978.748C1313.73 976.921 1316.31 978.482 1315.01 981.877C1312.66 989.448 1308.4 1001.78 1300.37 1019.54C1290.19 1043.82 1271.93 1077 1269.59 1085.36C1269.85 1090.84 1275.82 1091.62 1283.73 1091.74C1291 1091.18 1294.36 1086.11 1294.36 1086.11C1294.36 1086.11 1303.84 1065.73 1318.39 1029.92C1328.95 1003.92 1335.87 982.436 1338.78 972.741C1340.35 967 1343.73 965.779 1348.17 964.733C1354.8 962.556 1364.12 959.633 1369.81 958.601C1384.21 955.049 1388.35 955.814 1390.21 945.839C1391.51 938.902 1388.46 935.704 1388.46 935.704C1388.46 935.704 1357.09 945.484 1350.8 947.216C1345.32 949.563 1346.29 943.837 1346.29 943.837C1346.29 943.837 1345.53 947.455 1348.92 932.575C1359.21 887.309 1353.22 875.262 1345.04 868.385C1341.16 865.177 1335.38 863.815 1328.15 864.007ZM1753.46 944.339C1748.07 944.105 1735.78 953.242 1740.57 976.497C1734.04 1001.03 1684.25 1043.85 1677.63 1026.55C1676.01 1022.33 1680.37 1015.41 1691.77 1013.03C1710.56 1009.12 1708.99 997.429 1700.03 996.268C1685.93 994.441 1682.04 994.446 1665.24 990.512C1658.61 989.811 1658.81 981.002 1666.62 981.127C1669.84 980.997 1677.9 982.108 1695.15 982.754C1713.19 983.429 1716.76 969.395 1716.04 960.731C1697.63 964.705 1693.26 965.736 1677.38 965.736C1660.71 965.736 1640.09 970.341 1639.71 985.006C1639.34 999.576 1658.46 1002.86 1668.37 1005.65C1671.11 1006.31 1672.07 1008.59 1670.25 1010.03C1666.01 1013.41 1656.49 1017.83 1655.36 1025.8C1653.74 1037.08 1663.99 1045.97 1677 1045.69C1694.33 1045.33 1713.55 1037.98 1731.93 1015.91C1737.13 1009.68 1742.98 999.155 1746.57 994.515C1747.43 992.844 1749.86 992.013 1750.95 992.138C1754.24 992.864 1758.96 995.327 1758.34 998.895C1757.38 1004.36 1742.43 1021.43 1752.33 1031.68C1758.41 1037.97 1773.79 1042.43 1785.99 1033.55C1797.41 1025.25 1793.39 1017.71 1788.87 1017.16C1785.63 1016.77 1776.54 1028.13 1769.22 1020.04C1763.15 1013.32 1777.62 999.47 1780.48 994.515C1784.62 987.368 1768.5 981.867 1761.71 972.994C1757.34 967.158 1768.69 949.335 1754.46 944.59C1754.17 944.492 1753.81 944.355 1753.46 944.339H1753.46ZM1786.49 953.349C1783.62 953.349 1781.13 954.325 1779.11 956.352C1777.07 958.389 1776.1 960.866 1776.1 963.734C1776.1 966.633 1777.09 969.085 1779.11 971.117C1781.13 973.159 1783.6 974.245 1786.49 974.245C1789.38 974.245 1791.83 973.159 1793.87 971.117C1795.91 969.07 1797 966.622 1797 963.734C1797 960.856 1795.91 958.379 1793.87 956.352C1791.83 954.325 1789.38 953.349 1786.49 953.349ZM1786.49 954.725C1788.99 954.725 1791.1 955.591 1792.87 957.353C1794.62 959.104 1795.5 961.252 1795.5 963.734C1795.5 966.237 1794.62 968.354 1792.87 970.116C1791.11 971.877 1789 972.744 1786.49 972.744C1783.98 972.744 1781.86 971.877 1780.11 970.116C1778.37 968.354 1777.48 966.237 1777.48 963.734C1777.48 961.252 1778.36 959.105 1780.11 957.353C1781.87 955.59 1784 954.725 1786.49 954.725ZM1782.23 957.978V969.365H1784.24V964.986H1785.86C1786.96 964.986 1787.68 964.991 1788.11 965.236C1788.86 965.661 1789.24 966.542 1789.24 967.864V968.864L1789.37 969.24C1789.38 969.29 1789.36 969.325 1789.37 969.365H1791.24L1791.12 969.24C1791.07 969.145 1791.13 969.045 1791.12 968.739C1791.1 968.439 1790.99 968.123 1790.99 967.863V966.987C1790.99 966.412 1790.78 965.841 1790.37 965.235C1789.95 964.635 1789.38 964.249 1788.49 964.109C1789.2 963.993 1789.72 963.864 1790.12 963.609C1790.86 963.123 1791.24 962.257 1791.24 961.231C1791.24 959.79 1790.68 958.849 1789.49 958.353C1788.83 958.078 1787.67 957.978 1786.24 957.978L1782.23 957.978ZM1784.24 959.354H1785.99C1787.14 959.354 1787.97 959.574 1788.49 959.855C1789.01 960.14 1789.24 960.651 1789.24 961.481C1789.24 962.357 1788.92 962.923 1788.12 963.233C1787.68 963.404 1786.99 963.484 1786.11 963.484H1784.24V959.354ZM1441.01 962.733C1425.7 967.297 1417.94 966.737 1401.72 966.737C1384.7 966.737 1361.7 969.11 1362.68 985.506C1363.51 999.295 1382.93 1003.14 1392.96 1004.28C1395.84 1004.01 1396.68 1006.72 1394.59 1008.15C1390.06 1012.74 1384.9 1019.04 1384.2 1024.17C1382.69 1035.27 1388.37 1045.06 1402.47 1044.82C1417.61 1044.56 1422.57 1033.57 1447.89 1018.16C1454.96 1013.86 1463.79 1006.61 1467.41 1006.03C1468.8 1006.03 1470.8 1006.48 1470.67 1009.15C1468.52 1019.26 1466.18 1026.07 1468.79 1034.68C1470.63 1040.75 1478.65 1044.57 1484.43 1040.19C1494.09 1032.88 1494.18 1028.62 1506.7 1012.16C1508.78 1009.44 1516.45 996.983 1519.97 998.644C1522.89 1000.02 1522.01 1004.09 1521.47 1007.28C1518.84 1022.69 1512.15 1047.07 1542.61 1043.31C1549.86 1042.42 1555.75 1037.49 1550.25 1032.3C1546.92 1029.17 1543.17 1031.39 1538.99 1030.43C1529.21 1028.17 1553.4 983.638 1541.87 975.37C1525.64 963.748 1510.6 984.349 1499.32 999.394C1494.87 1005.33 1491.57 1002.74 1488.69 994.39C1485.47 985.1 1466.23 991.927 1455.15 997.643C1437.48 1006.76 1404.76 1037.25 1401.72 1022.04C1401.2 1019.42 1405.54 1013.54 1413.48 1010.66C1422.8 1007.27 1433.25 1004.24 1433.25 998.644C1433.25 994.31 1430.67 991.232 1427.87 991.387C1414.87 992.108 1399.75 995.516 1382.45 990.761C1378.51 990.731 1376.78 980.836 1388.46 982.128C1391.55 982.473 1398.46 982.983 1424.62 983.504C1443.05 983.875 1443.48 970.061 1441.01 962.733H1441.01Z" fill="#F2F2F2"/>
<mask id="path-4-outside-1_17_64" maskUnits="userSpaceOnUse" x="0" y="0" width="3119" height="1427" fill="black">
<rect fill="white" width="3119" height="1427"/>
<path d="M3028.68 1274.76C2971.86 1346.6 2887.8 1391.98 2797.36 1405.27C2680.08 1412.77 2585.5 1393.04 2496.12 1315.26C2466.12 1287.16 2444.33 1253.89 2422.06 1219.64C2420.29 1216.95 2418.53 1214.25 2416.7 1211.47C2387.01 1166.22 2387.01 1166.22 2381.98 1154C2375.75 1143.87 2368.62 1142.57 2357.5 1138.93C2352.5 1136.86 2352.5 1136.86 2347.41 1134.75C2344.08 1133.39 2340.75 1132.02 2337.32 1130.61C2332.33 1128.54 2332.33 1128.54 2327.23 1126.43C2276.7 1108.19 2212.34 1124.79 2160.44 1132.33C2149.8 1133.87 2139.16 1135.35 2128.52 1136.82C2038.16 1149.59 1949.83 1170.71 1861.28 1192.5C1490.13 1283.76 1490.13 1283.76 1320.4 1292.28C1316.6 1292.61 1312.79 1292.95 1308.87 1293.29C1289.56 1294.41 1275.87 1294.6 1260.29 1282.28C1246.36 1268.13 1237.64 1251.91 1228.85 1234.27C1209.12 1196.81 1185.51 1163.76 1158.98 1130.86C1156.27 1127.5 1153.56 1124.13 1150.77 1120.66C1085.69 1043.42 992.661 992.528 896.682 965.41C894.004 964.647 891.325 963.884 888.566 963.099C868.575 957.568 848.418 953.31 828.08 949.268C824.603 948.577 821.125 947.885 817.543 947.172C733.994 931.265 651.83 930.961 567.105 931.49C547.83 931.593 528.555 931.601 509.28 931.62C472.968 931.669 436.657 931.801 400.345 931.964C351.144 932.18 301.943 932.266 252.742 932.36C175.494 932.51 98.2476 932.832 20.9998 933.127C20.9998 740.033 20.9998 546.939 20.9998 347.994C42.3067 349.325 63.6137 350.657 85.5662 352.029C110.317 353.081 135.077 353.682 159.843 354.252C163.392 354.336 166.942 354.42 170.599 354.506C266.054 356.708 361.522 356.82 456.999 356.812C482.413 356.812 507.827 356.868 533.242 356.936C553.092 356.981 572.943 356.989 592.794 356.987C602.176 356.992 611.559 357.01 620.942 357.041C633.952 357.081 646.962 357.069 659.973 357.045C663.75 357.067 667.527 357.09 671.418 357.113C702.206 356.968 735.158 354.883 762.253 338.914C764.932 337.395 767.611 335.876 770.371 334.311C796.334 316.15 815.071 295.619 833.629 270.06C897.904 184.126 897.904 184.126 949.142 174.471C1016.78 168.359 1081.1 193.598 1144.59 213.617C1178.77 224.396 1212.96 234.478 1247.76 243.073C1254.13 226.486 1257.64 212.444 1255.83 194.648C1244.79 180.752 1233.03 170.635 1219.07 159.843C1204.06 147.506 1200.15 141.264 1197.98 122.2C1197.66 94.6638 1197.72 71.5412 1215.48 49.3739C1236.76 27.8752 1261.94 21.3242 1291.57 21C1337.9 23.3973 1370.6 36.4902 1404.76 67.88C1421.12 86.7411 1427.68 103.767 1426.72 128.316C1423.27 152.51 1414.85 172.16 1398.58 190.361C1371.86 206.69 1343.17 211.97 1312.33 214.825C1307 230.806 1301.67 246.786 1296.19 263.25C1302.02 264.335 1307.85 265.419 1313.86 266.537C1335.24 270.822 1355.79 276.72 1376.56 283.301C1380.2 284.435 1383.84 285.569 1387.59 286.737C1399.08 290.322 1410.56 293.936 1422.04 297.551C1433.57 301.16 1445.09 304.764 1456.62 308.365C1463.76 310.596 1470.89 312.832 1478.02 315.075C1487.35 318.003 1496.69 320.9 1506.03 323.781C1508.7 324.618 1511.37 325.456 1514.12 326.318C1527.06 330.237 1536.68 331.852 1550.42 331.852C1554.41 317.203 1558.41 302.555 1562.52 287.463C1557.61 283.967 1552.7 280.471 1547.64 276.87C1525.87 260.375 1508.01 244.424 1502.37 216.197C1501.29 189.302 1508.84 162.546 1525.95 141.684C1545.69 120.524 1569.52 117.947 1597.33 116.967C1643.13 117.656 1681.13 131.663 1713.6 164.131C1729.31 189.899 1730.21 214.266 1723.94 243.073C1715.86 265.386 1704.88 285.03 1682.89 295.786C1669.07 300.367 1656.49 301.277 1641.97 302.091C1634.38 302.543 1634.38 302.543 1626.63 303.005C1622.79 303.203 1618.94 303.401 1614.98 303.604C1614.45 306.039 1613.91 308.473 1613.36 310.981C1612.65 314.207 1611.93 317.432 1611.2 320.755C1610.15 325.53 1610.15 325.53 1609.07 330.402C1607.12 338.99 1605.03 347.525 1602.88 356.064C1607.56 357.001 1612.24 357.937 1617.06 358.902C1643.13 364.701 1668.53 372.75 1694.03 380.613C1708.8 385.166 1723.58 389.674 1738.36 394.18C1741.28 395.069 1744.19 395.958 1747.2 396.874C1783.69 407.978 1820.37 418.421 1857.11 428.702C1859.15 422.909 1861.16 417.106 1863.16 411.299C1864.28 408.069 1865.41 404.838 1866.57 401.51C1869.78 392.029 1869.78 392.029 1869.21 380.277C1862.74 374.448 1862.74 374.448 1854.33 369.179C1833.57 354.378 1817.7 337.513 1812.72 311.675C1808.67 281.915 1816.64 259.919 1832.9 235.002C1853.25 212.996 1879.75 210.407 1908.31 209.277C1950.49 210.235 1984.54 221.579 2015.28 250.75C2035.32 274.045 2040.01 294.874 2038.12 324.995C2034.12 350.442 2021.55 367.449 2002.38 384.312C1987.45 394.368 1970.41 395.04 1952.95 396.923C1948.44 397.446 1948.44 397.446 1943.84 397.979C1936.45 398.831 1929.06 399.646 1921.67 400.454C1917.68 416.434 1913.68 432.414 1909.57 448.879C1914.25 449.815 1918.93 450.751 1923.75 451.716C1949.82 457.515 1975.22 465.564 2000.72 473.427C2015.49 477.98 2030.27 482.488 2045.05 486.994C2047.97 487.883 2050.88 488.773 2053.89 489.689C2090.38 500.792 2127.06 511.235 2163.8 521.516C2167.79 504.204 2171.79 486.892 2175.9 469.056C2169.25 466.392 2162.59 463.729 2155.73 460.985C2137.86 448.117 2126.2 437.734 2119.41 416.595C2116.14 385.655 2116.01 357.297 2135.55 331.852C2152.73 313.033 2171.9 304.718 2197.14 302.39C2253.93 302.196 2288.85 312.968 2329.96 352.376C2342.97 366.025 2345.92 379.011 2346.65 397.427C2345.78 424.917 2339.83 448.102 2320.67 468.551C2301.77 484.083 2279.95 486.101 2256.22 487.922C2246.26 488.717 2246.26 488.717 2232.4 493.268C2223.98 507.713 2220.2 521.599 2216.26 537.657C2240.62 547.163 2265.15 554.947 2290.28 562.138C2294.19 563.266 2298.1 564.394 2302.13 565.556C2310.35 567.926 2318.57 570.289 2326.79 572.647C2339.3 576.236 2351.81 579.845 2364.32 583.458C2372.35 585.768 2380.37 588.077 2388.39 590.386C2393.95 591.987 2393.95 591.987 2399.62 593.622C2420.46 599.591 2441.35 605.164 2462.42 610.295C2466.41 594.314 2470.41 578.334 2474.52 561.87C2467.87 559.206 2461.21 556.543 2454.35 553.799C2434.02 535.82 2417.44 516.806 2413.99 489.233C2413.17 456.733 2425.03 434.559 2447.03 411.299C2480.2 391.4 2513.18 388.95 2550.44 396.923C2587.14 406.754 2618.78 424.647 2639.98 456.949C2648.34 482.037 2646.83 509.774 2636.38 534.079C2625.71 552.23 2611.51 565.92 2592.81 575.489C2572.35 579.349 2551.78 580.77 2531.02 582.047C2528.98 587.84 2526.97 593.643 2524.97 599.449C2523.84 602.68 2522.72 605.91 2521.56 609.238C2518.35 618.719 2518.35 618.719 2518.91 630.472C2563.03 644.392 2607.15 658.268 2651.3 672.088C2659.43 674.635 2667.56 677.185 2675.69 679.736C2688.58 683.769 2701.48 687.772 2714.38 691.759C2718.12 692.933 2721.85 694.106 2725.7 695.315C2729.12 696.363 2732.53 697.411 2736.05 698.49C2738.96 699.391 2741.86 700.292 2744.86 701.22C2754.2 703.719 2754.2 703.719 2769.11 703.109C2770.52 698.198 2771.94 693.288 2773.4 688.228C2774.19 685.466 2774.99 682.704 2775.81 679.858C2777.53 668.516 2776.9 661.538 2773.14 650.649C2764.33 641.521 2764.33 641.521 2753.47 633.246C2735.62 617.797 2723.8 605.917 2720.68 582.047C2719.71 554.3 2727.54 527.862 2746.6 507.234C2775.59 481.677 2804.9 483.227 2841.75 485.197C2880.45 489.785 2912.96 508.548 2937.48 538.193C2951.76 559.068 2949.25 587.336 2945.09 611.319C2937.97 634.634 2922.88 650.189 2902.28 662.755C2879.91 670.619 2857.19 671.848 2833.67 670.826C2833.14 673.551 2832.6 676.277 2832.05 679.086C2831.34 682.685 2830.63 686.285 2829.89 689.994C2829.19 693.552 2828.49 697.11 2827.76 700.776C2825.91 709.696 2823.85 718.504 2821.57 727.321C2824.81 728.57 2828.06 729.818 2831.4 731.104C2841.75 735.392 2841.75 735.392 2845.78 739.427C2850.69 740.26 2855.6 741.092 2860.66 741.95C2935.03 757.937 3004.15 815.534 3045.04 877.813C3119.31 1001.82 3116.91 1157.37 3028.68 1274.76Z"/>
</mask>
<path d="M3028.68 1274.76C2971.86 1346.6 2887.8 1391.98 2797.36 1405.27C2680.08 1412.77 2585.5 1393.04 2496.12 1315.26C2466.12 1287.16 2444.33 1253.89 2422.06 1219.64C2420.29 1216.95 2418.53 1214.25 2416.7 1211.47C2387.01 1166.22 2387.01 1166.22 2381.98 1154C2375.75 1143.87 2368.62 1142.57 2357.5 1138.93C2352.5 1136.86 2352.5 1136.86 2347.41 1134.75C2344.08 1133.39 2340.75 1132.02 2337.32 1130.61C2332.33 1128.54 2332.33 1128.54 2327.23 1126.43C2276.7 1108.19 2212.34 1124.79 2160.44 1132.33C2149.8 1133.87 2139.16 1135.35 2128.52 1136.82C2038.16 1149.59 1949.83 1170.71 1861.28 1192.5C1490.13 1283.76 1490.13 1283.76 1320.4 1292.28C1316.6 1292.61 1312.79 1292.95 1308.87 1293.29C1289.56 1294.41 1275.87 1294.6 1260.29 1282.28C1246.36 1268.13 1237.64 1251.91 1228.85 1234.27C1209.12 1196.81 1185.51 1163.76 1158.98 1130.86C1156.27 1127.5 1153.56 1124.13 1150.77 1120.66C1085.69 1043.42 992.661 992.528 896.682 965.41C894.004 964.647 891.325 963.884 888.566 963.099C868.575 957.568 848.418 953.31 828.08 949.268C824.603 948.577 821.125 947.885 817.543 947.172C733.994 931.265 651.83 930.961 567.105 931.49C547.83 931.593 528.555 931.601 509.28 931.62C472.968 931.669 436.657 931.801 400.345 931.964C351.144 932.18 301.943 932.266 252.742 932.36C175.494 932.51 98.2476 932.832 20.9998 933.127C20.9998 740.033 20.9998 546.939 20.9998 347.994C42.3067 349.325 63.6137 350.657 85.5662 352.029C110.317 353.081 135.077 353.682 159.843 354.252C163.392 354.336 166.942 354.42 170.599 354.506C266.054 356.708 361.522 356.82 456.999 356.812C482.413 356.812 507.827 356.868 533.242 356.936C553.092 356.981 572.943 356.989 592.794 356.987C602.176 356.992 611.559 357.01 620.942 357.041C633.952 357.081 646.962 357.069 659.973 357.045C663.75 357.067 667.527 357.09 671.418 357.113C702.206 356.968 735.158 354.883 762.253 338.914C764.932 337.395 767.611 335.876 770.371 334.311C796.334 316.15 815.071 295.619 833.629 270.06C897.904 184.126 897.904 184.126 949.142 174.471C1016.78 168.359 1081.1 193.598 1144.59 213.617C1178.77 224.396 1212.96 234.478 1247.76 243.073C1254.13 226.486 1257.64 212.444 1255.83 194.648C1244.79 180.752 1233.03 170.635 1219.07 159.843C1204.06 147.506 1200.15 141.264 1197.98 122.2C1197.66 94.6638 1197.72 71.5412 1215.48 49.3739C1236.76 27.8752 1261.94 21.3242 1291.57 21C1337.9 23.3973 1370.6 36.4902 1404.76 67.88C1421.12 86.7411 1427.68 103.767 1426.72 128.316C1423.27 152.51 1414.85 172.16 1398.58 190.361C1371.86 206.69 1343.17 211.97 1312.33 214.825C1307 230.806 1301.67 246.786 1296.19 263.25C1302.02 264.335 1307.85 265.419 1313.86 266.537C1335.24 270.822 1355.79 276.72 1376.56 283.301C1380.2 284.435 1383.84 285.569 1387.59 286.737C1399.08 290.322 1410.56 293.936 1422.04 297.551C1433.57 301.16 1445.09 304.764 1456.62 308.365C1463.76 310.596 1470.89 312.832 1478.02 315.075C1487.35 318.003 1496.69 320.9 1506.03 323.781C1508.7 324.618 1511.37 325.456 1514.12 326.318C1527.06 330.237 1536.68 331.852 1550.42 331.852C1554.41 317.203 1558.41 302.555 1562.52 287.463C1557.61 283.967 1552.7 280.471 1547.64 276.87C1525.87 260.375 1508.01 244.424 1502.37 216.197C1501.29 189.302 1508.84 162.546 1525.95 141.684C1545.69 120.524 1569.52 117.947 1597.33 116.967C1643.13 117.656 1681.13 131.663 1713.6 164.131C1729.31 189.899 1730.21 214.266 1723.94 243.073C1715.86 265.386 1704.88 285.03 1682.89 295.786C1669.07 300.367 1656.49 301.277 1641.97 302.091C1634.38 302.543 1634.38 302.543 1626.63 303.005C1622.79 303.203 1618.94 303.401 1614.98 303.604C1614.45 306.039 1613.91 308.473 1613.36 310.981C1612.65 314.207 1611.93 317.432 1611.2 320.755C1610.15 325.53 1610.15 325.53 1609.07 330.402C1607.12 338.99 1605.03 347.525 1602.88 356.064C1607.56 357.001 1612.24 357.937 1617.06 358.902C1643.13 364.701 1668.53 372.75 1694.03 380.613C1708.8 385.166 1723.58 389.674 1738.36 394.18C1741.28 395.069 1744.19 395.958 1747.2 396.874C1783.69 407.978 1820.37 418.421 1857.11 428.702C1859.15 422.909 1861.16 417.106 1863.16 411.299C1864.28 408.069 1865.41 404.838 1866.57 401.51C1869.78 392.029 1869.78 392.029 1869.21 380.277C1862.74 374.448 1862.74 374.448 1854.33 369.179C1833.57 354.378 1817.7 337.513 1812.72 311.675C1808.67 281.915 1816.64 259.919 1832.9 235.002C1853.25 212.996 1879.75 210.407 1908.31 209.277C1950.49 210.235 1984.54 221.579 2015.28 250.75C2035.32 274.045 2040.01 294.874 2038.12 324.995C2034.12 350.442 2021.55 367.449 2002.38 384.312C1987.45 394.368 1970.41 395.04 1952.95 396.923C1948.44 397.446 1948.44 397.446 1943.84 397.979C1936.45 398.831 1929.06 399.646 1921.67 400.454C1917.68 416.434 1913.68 432.414 1909.57 448.879C1914.25 449.815 1918.93 450.751 1923.75 451.716C1949.82 457.515 1975.22 465.564 2000.72 473.427C2015.49 477.98 2030.27 482.488 2045.05 486.994C2047.97 487.883 2050.88 488.773 2053.89 489.689C2090.38 500.792 2127.06 511.235 2163.8 521.516C2167.79 504.204 2171.79 486.892 2175.9 469.056C2169.25 466.392 2162.59 463.729 2155.73 460.985C2137.86 448.117 2126.2 437.734 2119.41 416.595C2116.14 385.655 2116.01 357.297 2135.55 331.852C2152.73 313.033 2171.9 304.718 2197.14 302.39C2253.93 302.196 2288.85 312.968 2329.96 352.376C2342.97 366.025 2345.92 379.011 2346.65 397.427C2345.78 424.917 2339.83 448.102 2320.67 468.551C2301.77 484.083 2279.95 486.101 2256.22 487.922C2246.26 488.717 2246.26 488.717 2232.4 493.268C2223.98 507.713 2220.2 521.599 2216.26 537.657C2240.62 547.163 2265.15 554.947 2290.28 562.138C2294.19 563.266 2298.1 564.394 2302.13 565.556C2310.35 567.926 2318.57 570.289 2326.79 572.647C2339.3 576.236 2351.81 579.845 2364.32 583.458C2372.35 585.768 2380.37 588.077 2388.39 590.386C2393.95 591.987 2393.95 591.987 2399.62 593.622C2420.46 599.591 2441.35 605.164 2462.42 610.295C2466.41 594.314 2470.41 578.334 2474.52 561.87C2467.87 559.206 2461.21 556.543 2454.35 553.799C2434.02 535.82 2417.44 516.806 2413.99 489.233C2413.17 456.733 2425.03 434.559 2447.03 411.299C2480.2 391.4 2513.18 388.95 2550.44 396.923C2587.14 406.754 2618.78 424.647 2639.98 456.949C2648.34 482.037 2646.83 509.774 2636.38 534.079C2625.71 552.23 2611.51 565.92 2592.81 575.489C2572.35 579.349 2551.78 580.77 2531.02 582.047C2528.98 587.84 2526.97 593.643 2524.97 599.449C2523.84 602.68 2522.72 605.91 2521.56 609.238C2518.35 618.719 2518.35 618.719 2518.91 630.472C2563.03 644.392 2607.15 658.268 2651.3 672.088C2659.43 674.635 2667.56 677.185 2675.69 679.736C2688.58 683.769 2701.48 687.772 2714.38 691.759C2718.12 692.933 2721.85 694.106 2725.7 695.315C2729.12 696.363 2732.53 697.411 2736.05 698.49C2738.96 699.391 2741.86 700.292 2744.86 701.22C2754.2 703.719 2754.2 703.719 2769.11 703.109C2770.52 698.198 2771.94 693.288 2773.4 688.228C2774.19 685.466 2774.99 682.704 2775.81 679.858C2777.53 668.516 2776.9 661.538 2773.14 650.649C2764.33 641.521 2764.33 641.521 2753.47 633.246C2735.62 617.797 2723.8 605.917 2720.68 582.047C2719.71 554.3 2727.54 527.862 2746.6 507.234C2775.59 481.677 2804.9 483.227 2841.75 485.197C2880.45 489.785 2912.96 508.548 2937.48 538.193C2951.76 559.068 2949.25 587.336 2945.09 611.319C2937.97 634.634 2922.88 650.189 2902.28 662.755C2879.91 670.619 2857.19 671.848 2833.67 670.826C2833.14 673.551 2832.6 676.277 2832.05 679.086C2831.34 682.685 2830.63 686.285 2829.89 689.994C2829.19 693.552 2828.49 697.11 2827.76 700.776C2825.91 709.696 2823.85 718.504 2821.57 727.321C2824.81 728.57 2828.06 729.818 2831.4 731.104C2841.75 735.392 2841.75 735.392 2845.78 739.427C2850.69 740.26 2855.6 741.092 2860.66 741.95C2935.03 757.937 3004.15 815.534 3045.04 877.813C3119.31 1001.82 3116.91 1157.37 3028.68 1274.76Z" fill="#F2F2F2" fill-opacity="0.01"/>
<path d="M3028.68 1274.76C2971.86 1346.6 2887.8 1391.98 2797.36 1405.27C2680.08 1412.77 2585.5 1393.04 2496.12 1315.26C2466.12 1287.16 2444.33 1253.89 2422.06 1219.64C2420.29 1216.95 2418.53 1214.25 2416.7 1211.47C2387.01 1166.22 2387.01 1166.22 2381.98 1154C2375.75 1143.87 2368.62 1142.57 2357.5 1138.93C2352.5 1136.86 2352.5 1136.86 2347.41 1134.75C2344.08 1133.39 2340.75 1132.02 2337.32 1130.61C2332.33 1128.54 2332.33 1128.54 2327.23 1126.43C2276.7 1108.19 2212.34 1124.79 2160.44 1132.33C2149.8 1133.87 2139.16 1135.35 2128.52 1136.82C2038.16 1149.59 1949.83 1170.71 1861.28 1192.5C1490.13 1283.76 1490.13 1283.76 1320.4 1292.28C1316.6 1292.61 1312.79 1292.95 1308.87 1293.29C1289.56 1294.41 1275.87 1294.6 1260.29 1282.28C1246.36 1268.13 1237.64 1251.91 1228.85 1234.27C1209.12 1196.81 1185.51 1163.76 1158.98 1130.86C1156.27 1127.5 1153.56 1124.13 1150.77 1120.66C1085.69 1043.42 992.661 992.528 896.682 965.41C894.004 964.647 891.325 963.884 888.566 963.099C868.575 957.568 848.418 953.31 828.08 949.268C824.603 948.577 821.125 947.885 817.543 947.172C733.994 931.265 651.83 930.961 567.105 931.49C547.83 931.593 528.555 931.601 509.28 931.62C472.968 931.669 436.657 931.801 400.345 931.964C351.144 932.18 301.943 932.266 252.742 932.36C175.494 932.51 98.2476 932.832 20.9998 933.127C20.9998 740.033 20.9998 546.939 20.9998 347.994C42.3067 349.325 63.6137 350.657 85.5662 352.029C110.317 353.081 135.077 353.682 159.843 354.252C163.392 354.336 166.942 354.42 170.599 354.506C266.054 356.708 361.522 356.82 456.999 356.812C482.413 356.812 507.827 356.868 533.242 356.936C553.092 356.981 572.943 356.989 592.794 356.987C602.176 356.992 611.559 357.01 620.942 357.041C633.952 357.081 646.962 357.069 659.973 357.045C663.75 357.067 667.527 357.09 671.418 357.113C702.206 356.968 735.158 354.883 762.253 338.914C764.932 337.395 767.611 335.876 770.371 334.311C796.334 316.15 815.071 295.619 833.629 270.06C897.904 184.126 897.904 184.126 949.142 174.471C1016.78 168.359 1081.1 193.598 1144.59 213.617C1178.77 224.396 1212.96 234.478 1247.76 243.073C1254.13 226.486 1257.64 212.444 1255.83 194.648C1244.79 180.752 1233.03 170.635 1219.07 159.843C1204.06 147.506 1200.15 141.264 1197.98 122.2C1197.66 94.6638 1197.72 71.5412 1215.48 49.3739C1236.76 27.8752 1261.94 21.3242 1291.57 21C1337.9 23.3973 1370.6 36.4902 1404.76 67.88C1421.12 86.7411 1427.68 103.767 1426.72 128.316C1423.27 152.51 1414.85 172.16 1398.58 190.361C1371.86 206.69 1343.17 211.97 1312.33 214.825C1307 230.806 1301.67 246.786 1296.19 263.25C1302.02 264.335 1307.85 265.419 1313.86 266.537C1335.24 270.822 1355.79 276.72 1376.56 283.301C1380.2 284.435 1383.84 285.569 1387.59 286.737C1399.08 290.322 1410.56 293.936 1422.04 297.551C1433.57 301.16 1445.09 304.764 1456.62 308.365C1463.76 310.596 1470.89 312.832 1478.02 315.075C1487.35 318.003 1496.69 320.9 1506.03 323.781C1508.7 324.618 1511.37 325.456 1514.12 326.318C1527.06 330.237 1536.68 331.852 1550.42 331.852C1554.41 317.203 1558.41 302.555 1562.52 287.463C1557.61 283.967 1552.7 280.471 1547.64 276.87C1525.87 260.375 1508.01 244.424 1502.37 216.197C1501.29 189.302 1508.84 162.546 1525.95 141.684C1545.69 120.524 1569.52 117.947 1597.33 116.967C1643.13 117.656 1681.13 131.663 1713.6 164.131C1729.31 189.899 1730.21 214.266 1723.94 243.073C1715.86 265.386 1704.88 285.03 1682.89 295.786C1669.07 300.367 1656.49 301.277 1641.97 302.091C1634.38 302.543 1634.38 302.543 1626.63 303.005C1622.79 303.203 1618.94 303.401 1614.98 303.604C1614.45 306.039 1613.91 308.473 1613.36 310.981C1612.65 314.207 1611.93 317.432 1611.2 320.755C1610.15 325.53 1610.15 325.53 1609.07 330.402C1607.12 338.99 1605.03 347.525 1602.88 356.064C1607.56 357.001 1612.24 357.937 1617.06 358.902C1643.13 364.701 1668.53 372.75 1694.03 380.613C1708.8 385.166 1723.58 389.674 1738.36 394.18C1741.28 395.069 1744.19 395.958 1747.2 396.874C1783.69 407.978 1820.37 418.421 1857.11 428.702C1859.15 422.909 1861.16 417.106 1863.16 411.299C1864.28 408.069 1865.41 404.838 1866.57 401.51C1869.78 392.029 1869.78 392.029 1869.21 380.277C1862.74 374.448 1862.74 374.448 1854.33 369.179C1833.57 354.378 1817.7 337.513 1812.72 311.675C1808.67 281.915 1816.64 259.919 1832.9 235.002C1853.25 212.996 1879.75 210.407 1908.31 209.277C1950.49 210.235 1984.54 221.579 2015.28 250.75C2035.32 274.045 2040.01 294.874 2038.12 324.995C2034.12 350.442 2021.55 367.449 2002.38 384.312C1987.45 394.368 1970.41 395.04 1952.95 396.923C1948.44 397.446 1948.44 397.446 1943.84 397.979C1936.45 398.831 1929.06 399.646 1921.67 400.454C1917.68 416.434 1913.68 432.414 1909.57 448.879C1914.25 449.815 1918.93 450.751 1923.75 451.716C1949.82 457.515 1975.22 465.564 2000.72 473.427C2015.49 477.98 2030.27 482.488 2045.05 486.994C2047.97 487.883 2050.88 488.773 2053.89 489.689C2090.38 500.792 2127.06 511.235 2163.8 521.516C2167.79 504.204 2171.79 486.892 2175.9 469.056C2169.25 466.392 2162.59 463.729 2155.73 460.985C2137.86 448.117 2126.2 437.734 2119.41 416.595C2116.14 385.655 2116.01 357.297 2135.55 331.852C2152.73 313.033 2171.9 304.718 2197.14 302.39C2253.93 302.196 2288.85 312.968 2329.96 352.376C2342.97 366.025 2345.92 379.011 2346.65 397.427C2345.78 424.917 2339.83 448.102 2320.67 468.551C2301.77 484.083 2279.95 486.101 2256.22 487.922C2246.26 488.717 2246.26 488.717 2232.4 493.268C2223.98 507.713 2220.2 521.599 2216.26 537.657C2240.62 547.163 2265.15 554.947 2290.28 562.138C2294.19 563.266 2298.1 564.394 2302.13 565.556C2310.35 567.926 2318.57 570.289 2326.79 572.647C2339.3 576.236 2351.81 579.845 2364.32 583.458C2372.35 585.768 2380.37 588.077 2388.39 590.386C2393.95 591.987 2393.95 591.987 2399.62 593.622C2420.46 599.591 2441.35 605.164 2462.42 610.295C2466.41 594.314 2470.41 578.334 2474.52 561.87C2467.87 559.206 2461.21 556.543 2454.35 553.799C2434.02 535.82 2417.44 516.806 2413.99 489.233C2413.17 456.733 2425.03 434.559 2447.03 411.299C2480.2 391.4 2513.18 388.95 2550.44 396.923C2587.14 406.754 2618.78 424.647 2639.98 456.949C2648.34 482.037 2646.83 509.774 2636.38 534.079C2625.71 552.23 2611.51 565.92 2592.81 575.489C2572.35 579.349 2551.78 580.77 2531.02 582.047C2528.98 587.84 2526.97 593.643 2524.97 599.449C2523.84 602.68 2522.72 605.91 2521.56 609.238C2518.35 618.719 2518.35 618.719 2518.91 630.472C2563.03 644.392 2607.15 658.268 2651.3 672.088C2659.43 674.635 2667.56 677.185 2675.69 679.736C2688.58 683.769 2701.48 687.772 2714.38 691.759C2718.12 692.933 2721.85 694.106 2725.7 695.315C2729.12 696.363 2732.53 697.411 2736.05 698.49C2738.96 699.391 2741.86 700.292 2744.86 701.22C2754.2 703.719 2754.2 703.719 2769.11 703.109C2770.52 698.198 2771.94 693.288 2773.4 688.228C2774.19 685.466 2774.99 682.704 2775.81 679.858C2777.53 668.516 2776.9 661.538 2773.14 650.649C2764.33 641.521 2764.33 641.521 2753.47 633.246C2735.62 617.797 2723.8 605.917 2720.68 582.047C2719.71 554.3 2727.54 527.862 2746.6 507.234C2775.59 481.677 2804.9 483.227 2841.75 485.197C2880.45 489.785 2912.96 508.548 2937.48 538.193C2951.76 559.068 2949.25 587.336 2945.09 611.319C2937.97 634.634 2922.88 650.189 2902.28 662.755C2879.91 670.619 2857.19 671.848 2833.67 670.826C2833.14 673.551 2832.6 676.277 2832.05 679.086C2831.34 682.685 2830.63 686.285 2829.89 689.994C2829.19 693.552 2828.49 697.11 2827.76 700.776C2825.91 709.696 2823.85 718.504 2821.57 727.321C2824.81 728.57 2828.06 729.818 2831.4 731.104C2841.75 735.392 2841.75 735.392 2845.78 739.427C2850.69 740.26 2855.6 741.092 2860.66 741.95C2935.03 757.937 3004.15 815.534 3045.04 877.813C3119.31 1001.82 3116.91 1157.37 3028.68 1274.76Z" stroke="#F2F2F2" stroke-width="40.354" mask="url(#path-4-outside-1_17_64)"/>
</svg>
