<svg width="132" height="132" viewBox="0 0 132 132" fill="none" xmlns="http://www.w3.org/2000/svg">
<path d="M52.6686 89.6998C45.6737 83.9393 43.2049 74.0641 46.4966 65.4233L63.3667 21.3964C67.0699 12.3442 78.1795 9.46392 85.5859 15.6359C91.3464 20.5735 92.1693 29.2143 87.6432 34.9748L83.1171 41.1468L88.8776 66.6577C90.5235 74.4756 88.0547 82.7049 81.8827 87.6425L80.2368 89.2883C72.0075 96.2833 60.4864 96.2832 52.6686 89.6998Z" stroke="#F2F2F2" stroke-width="8.22932" stroke-miterlimit="10" stroke-linecap="round" stroke-linejoin="round"/>
<path d="M57.6055 119.325V92.5798" stroke="#F2F2F2" stroke-width="8.22932" stroke-miterlimit="10" stroke-linecap="round" stroke-linejoin="round"/>
<path d="M78.1787 90.9346V119.326" stroke="#F2F2F2" stroke-width="8.22932" stroke-miterlimit="10" stroke-linecap="round" stroke-linejoin="round"/>
<path d="M39.499 61.3081L46.9054 64.5998" stroke="#F2F2F2" stroke-width="8.22932" stroke-miterlimit="10" stroke-linecap="round" stroke-linejoin="round"/>
<path d="M43.6133 48.9641L51.4311 52.6673" stroke="#F2F2F2" stroke-width="8.22932" stroke-miterlimit="10" stroke-linecap="round" stroke-linejoin="round"/>
<path d="M47.7285 36.6201L55.9578 40.3233" stroke="#F2F2F2" stroke-width="8.22932" stroke-miterlimit="10" stroke-linecap="round" stroke-linejoin="round"/>
<path d="M51.8428 24.2761L60.895 28.3908" stroke="#F2F2F2" stroke-width="8.22932" stroke-miterlimit="10" stroke-linecap="round" stroke-linejoin="round"/>
</svg>
