<svg width="2005" height="773" viewBox="0 0 2005 773" fill="none" xmlns="http://www.w3.org/2000/svg">
<path d="M789.934 595.859C789.934 599.426 789.325 602.681 788.108 605.625C786.891 608.569 785.235 611.102 783.14 613.225C781.045 615.32 778.583 616.948 775.752 618.108C772.95 619.269 769.935 619.849 766.708 619.849C763.509 619.849 760.494 619.255 757.664 618.066C754.861 616.877 752.399 615.221 750.275 613.098C748.181 610.975 746.525 608.456 745.308 605.54C744.09 602.596 743.482 599.369 743.482 595.859V555.436H755.116V576.667C755.739 575.874 756.489 575.166 757.366 574.544C758.272 573.921 759.235 573.411 760.254 573.015C761.301 572.619 762.377 572.321 763.481 572.123C764.585 571.897 765.66 571.784 766.708 571.784C769.935 571.784 772.95 572.392 775.752 573.609C778.583 574.798 781.045 576.468 783.14 578.62C785.235 580.771 786.891 583.319 788.108 586.263C789.325 589.178 789.934 592.377 789.934 595.859ZM778.257 595.859C778.257 594.104 777.946 592.476 777.323 590.976C776.729 589.447 775.908 588.131 774.86 587.027C773.813 585.923 772.582 585.06 771.166 584.437C769.779 583.814 768.293 583.503 766.708 583.503C765.123 583.503 763.622 583.857 762.207 584.564C760.82 585.244 759.603 586.164 758.555 587.324C757.508 588.457 756.687 589.773 756.093 591.273C755.498 592.745 755.201 594.274 755.201 595.859C755.201 597.614 755.498 599.242 756.093 600.742C756.687 602.242 757.508 603.544 758.555 604.648C759.603 605.752 760.82 606.63 762.207 607.281C763.622 607.904 765.123 608.215 766.708 608.215C768.293 608.215 769.779 607.904 771.166 607.281C772.582 606.63 773.813 605.752 774.86 604.648C775.908 603.544 776.729 602.242 777.323 600.742C777.946 599.242 778.257 597.614 778.257 595.859ZM807.343 636.324V624.647L813.797 624.732C814.929 624.732 816.019 624.548 817.066 624.18C818.114 623.812 819.076 623.303 819.954 622.652C820.859 622.001 821.652 621.222 822.331 620.316C823.011 619.439 823.563 618.476 823.987 617.429C822.714 617.967 821.411 618.505 820.081 619.042C818.779 619.58 817.463 619.849 816.132 619.849C813.33 619.849 810.697 619.354 808.234 618.363C805.772 617.372 803.606 615.971 801.738 614.159C799.898 612.32 798.44 610.097 797.364 607.493C796.317 604.861 795.793 601.917 795.793 598.661V573.525H807.343V598.661C807.343 600.275 807.569 601.69 808.022 602.907C808.503 604.096 809.14 605.101 809.933 605.922C810.725 606.715 811.645 607.309 812.693 607.705C813.768 608.102 814.915 608.3 816.132 608.3C817.321 608.3 818.439 608.031 819.487 607.493C820.562 606.927 821.496 606.191 822.289 605.285C823.082 604.379 823.704 603.36 824.157 602.228C824.61 601.067 824.837 599.879 824.837 598.661V573.525H836.513V613.268C836.485 616.467 835.862 619.467 834.645 622.269C833.428 625.072 831.758 627.52 829.635 629.615C827.54 631.71 825.091 633.366 822.289 634.583C819.487 635.8 816.486 636.409 813.287 636.409L807.343 636.324Z" fill="white"/>
<path d="M533.268 468.911C525.064 475.966 515.875 481.38 505.703 485.154C495.53 488.928 484.988 490.815 474.077 490.815C465.709 490.815 457.628 489.707 449.835 487.492C442.123 485.359 434.863 482.324 428.053 478.386C421.326 474.366 415.173 469.567 409.595 463.988C404.016 458.41 399.217 452.257 395.197 445.53C391.259 438.72 388.183 431.46 385.968 423.748C383.835 415.955 382.768 407.874 382.768 399.506C382.768 391.138 383.835 383.057 385.968 375.264C388.183 367.47 391.259 360.21 395.197 353.483C399.217 346.673 404.016 340.48 409.595 334.901C415.173 329.322 421.326 324.564 428.053 320.626C434.863 316.606 442.123 313.53 449.835 311.397C457.628 309.182 465.709 308.074 474.077 308.074C484.988 308.074 495.53 309.961 505.703 313.735C515.875 317.427 525.064 322.841 533.268 329.979L514.563 360.743C509.394 355.164 503.282 350.898 496.227 347.945C489.172 344.91 481.788 343.392 474.077 343.392C466.283 343.392 458.982 344.869 452.173 347.822C445.363 350.775 439.416 354.795 434.329 359.882C429.243 364.886 425.223 370.834 422.27 377.725C419.316 384.534 417.84 391.794 417.84 399.506C417.84 407.218 419.316 414.478 422.27 421.287C425.223 428.014 429.243 433.921 434.329 439.008C439.416 444.094 445.363 448.114 452.173 451.067C458.982 454.021 466.283 455.497 474.077 455.497C481.788 455.497 489.172 454.021 496.227 451.067C503.282 448.032 509.394 443.725 514.563 438.146L533.268 468.911ZM597.996 454.759C599.308 455.169 600.621 455.456 601.934 455.62C603.246 455.702 604.559 455.743 605.871 455.743C609.153 455.743 612.311 455.292 615.347 454.39C618.382 453.487 621.213 452.216 623.838 450.575C626.545 448.852 628.924 446.801 630.975 444.422C633.108 441.961 634.831 439.254 636.144 436.3L660.755 461.035C657.638 465.465 654.028 469.444 649.926 472.971C645.906 476.499 641.517 479.493 636.759 481.955C632.083 484.416 627.119 486.262 621.869 487.492C616.7 488.805 611.368 489.461 605.871 489.461C596.601 489.461 587.864 487.738 579.66 484.293C571.538 480.847 564.401 476.048 558.248 469.895C552.177 463.742 547.378 456.441 543.85 447.991C540.323 439.459 538.559 430.106 538.559 419.934C538.559 409.515 540.323 399.998 543.85 391.384C547.378 382.77 552.177 375.428 558.248 369.357C564.401 363.286 571.538 358.569 579.66 355.205C587.864 351.842 596.601 350.16 605.871 350.16C611.368 350.16 616.742 350.816 621.992 352.129C627.242 353.442 632.206 355.328 636.882 357.79C641.64 360.251 646.07 363.286 650.172 366.896C654.274 370.424 657.884 374.402 661.001 378.832L597.996 454.759ZM615.224 385.478C613.665 384.903 612.106 384.534 610.548 384.37C609.071 384.206 607.512 384.124 605.871 384.124C601.277 384.124 596.929 384.985 592.827 386.708C588.807 388.349 585.28 390.728 582.244 393.845C579.291 396.963 576.953 400.737 575.23 405.167C573.507 409.515 572.646 414.437 572.646 419.934C572.646 421.164 572.687 422.559 572.769 424.118C572.933 425.676 573.138 427.276 573.384 428.917C573.712 430.476 574.082 431.993 574.492 433.47C574.902 434.947 575.435 436.259 576.092 437.408L615.224 385.478ZM804.363 487H796.241L783.197 468.911C779.998 471.782 776.593 474.489 772.984 477.032C769.456 479.493 765.723 481.668 761.785 483.554C757.847 485.359 753.787 486.795 749.603 487.861C745.501 488.928 741.317 489.461 737.051 489.461C727.78 489.461 719.043 487.738 710.84 484.293C702.718 480.765 695.58 475.925 689.428 469.772C683.357 463.537 678.557 456.195 675.03 447.745C671.502 439.213 669.738 429.942 669.738 419.934C669.738 410.007 671.502 400.778 675.03 392.246C678.557 383.714 683.357 376.33 689.428 370.095C695.58 363.86 702.718 358.979 710.84 355.452C719.043 351.924 727.78 350.16 737.051 350.16C740.004 350.16 743.04 350.406 746.157 350.898C749.357 351.391 752.433 352.211 755.386 353.36C758.422 354.426 761.252 355.862 763.877 357.667C766.503 359.471 768.718 361.686 770.522 364.312V302.783H804.363V487ZM770.522 419.934C770.522 415.34 769.62 410.909 767.815 406.643C766.092 402.295 763.713 398.481 760.678 395.199C757.642 391.836 754.074 389.169 749.972 387.2C745.952 385.149 741.645 384.124 737.051 384.124C732.457 384.124 728.109 384.944 724.007 386.585C719.987 388.226 716.459 390.605 713.424 393.722C710.47 396.758 708.132 400.491 706.409 404.921C704.687 409.351 703.825 414.355 703.825 419.934C703.825 424.774 704.687 429.368 706.409 433.716C708.132 438.064 710.47 441.879 713.424 445.16C716.459 448.442 719.987 451.026 724.007 452.913C728.109 454.8 732.457 455.743 737.051 455.743C741.645 455.743 745.952 454.759 749.972 452.79C754.074 450.739 757.642 448.073 760.678 444.791C763.713 441.428 766.092 437.613 767.815 433.347C769.62 428.999 770.522 424.528 770.522 419.934ZM957.693 487H949.571L936.527 468.911C933.327 471.782 929.923 474.489 926.313 477.032C922.786 479.493 919.053 481.668 915.115 483.554C911.177 485.359 907.116 486.795 902.932 487.861C898.83 488.928 894.646 489.461 890.38 489.461C881.11 489.461 872.373 487.902 864.169 484.785C856.047 481.668 848.91 477.155 842.757 471.249C836.686 465.26 831.887 457.958 828.359 449.344C824.832 440.73 823.068 430.927 823.068 419.934C823.068 409.679 824.832 400.285 828.359 391.753C831.887 383.139 836.686 375.756 842.757 369.603C848.91 363.45 856.047 358.692 864.169 355.328C872.373 351.883 881.11 350.16 890.38 350.16C894.646 350.16 898.871 350.693 903.055 351.76C907.239 352.826 911.3 354.303 915.238 356.19C919.176 358.077 922.909 360.292 926.436 362.835C930.046 365.378 933.41 368.126 936.527 371.08L949.571 355.452H957.693V487ZM923.852 419.934C923.852 415.34 922.95 410.909 921.145 406.643C919.422 402.295 917.043 398.481 914.007 395.199C910.972 391.836 907.403 389.169 903.301 387.2C899.282 385.149 894.975 384.124 890.38 384.124C885.786 384.124 881.438 384.903 877.336 386.462C873.316 388.021 869.789 390.318 866.753 393.353C863.8 396.389 861.462 400.162 859.739 404.675C858.016 409.105 857.155 414.191 857.155 419.934C857.155 425.676 858.016 430.804 859.739 435.316C861.462 439.746 863.8 443.479 866.753 446.514C869.789 449.549 873.316 451.847 877.336 453.405C881.438 454.964 885.786 455.743 890.38 455.743C894.975 455.743 899.282 454.759 903.301 452.79C907.403 450.739 910.972 448.073 914.007 444.791C917.043 441.428 919.422 437.613 921.145 433.347C922.95 428.999 923.852 424.528 923.852 419.934ZM1017.01 487H983.412V355.205H991.534L1002.61 370.834C1008.02 365.911 1014.18 362.138 1021.07 359.512C1027.96 356.805 1035.1 355.452 1042.48 355.452H1072.14V388.923H1042.48C1038.95 388.923 1035.63 389.579 1032.51 390.892C1029.39 392.205 1026.69 394.01 1024.39 396.307C1022.09 398.604 1020.29 401.311 1018.98 404.428C1017.66 407.546 1017.01 410.868 1017.01 414.396V487ZM1232.23 468.911C1224.03 475.966 1214.84 481.38 1204.67 485.154C1194.5 488.928 1183.95 490.815 1173.04 490.815C1164.68 490.815 1156.59 489.707 1148.8 487.492C1141.09 485.359 1133.83 482.324 1127.02 478.386C1120.29 474.366 1114.14 469.567 1108.56 463.988C1102.98 458.41 1098.18 452.257 1094.16 445.53C1090.23 438.72 1087.15 431.46 1084.93 423.748C1082.8 415.955 1081.73 407.874 1081.73 399.506C1081.73 391.138 1082.8 383.057 1084.93 375.264C1087.15 367.47 1090.23 360.21 1094.16 353.483C1098.18 346.673 1102.98 340.48 1108.56 334.901C1114.14 329.322 1120.29 324.564 1127.02 320.626C1133.83 316.606 1141.09 313.53 1148.8 311.397C1156.59 309.182 1164.68 308.074 1173.04 308.074C1183.95 308.074 1194.5 309.961 1204.67 313.735C1214.84 317.427 1224.03 322.841 1232.23 329.979L1213.53 360.743C1208.36 355.164 1202.25 350.898 1195.19 347.945C1188.14 344.91 1180.76 343.392 1173.04 343.392C1165.25 343.392 1157.95 344.869 1151.14 347.822C1144.33 350.775 1138.38 354.795 1133.3 359.882C1128.21 364.886 1124.19 370.834 1121.24 377.725C1118.28 384.534 1116.81 391.794 1116.81 399.506C1116.81 407.218 1118.28 414.478 1121.24 421.287C1124.19 428.014 1128.21 433.921 1133.3 439.008C1138.38 444.094 1144.33 448.114 1151.14 451.067C1157.95 454.021 1165.25 455.497 1173.04 455.497C1180.76 455.497 1188.14 454.021 1195.19 451.067C1202.25 448.032 1208.36 443.725 1213.53 438.146L1232.23 468.911ZM1371.9 419.934C1371.9 429.778 1370.14 438.967 1366.61 447.499C1363.09 455.948 1358.29 463.291 1352.22 469.526C1346.14 475.679 1339.01 480.56 1330.8 484.17C1322.68 487.697 1313.94 489.461 1304.59 489.461C1295.32 489.461 1286.58 487.697 1278.38 484.17C1270.26 480.56 1263.12 475.679 1256.97 469.526C1250.9 463.291 1246.1 455.948 1242.57 447.499C1239.04 438.967 1237.28 429.778 1237.28 419.934C1237.28 409.925 1239.04 400.655 1242.57 392.123C1246.1 383.591 1250.9 376.248 1256.97 370.095C1263.12 363.86 1270.26 358.979 1278.38 355.452C1286.58 351.924 1295.32 350.16 1304.59 350.16C1313.94 350.16 1322.68 351.842 1330.8 355.205C1339.01 358.487 1346.14 363.204 1352.22 369.357C1358.29 375.428 1363.09 382.77 1366.61 391.384C1370.14 399.916 1371.9 409.433 1371.9 419.934ZM1338.06 419.934C1338.06 414.519 1337.16 409.638 1335.36 405.29C1333.63 400.86 1331.25 397.086 1328.22 393.969C1325.18 390.769 1321.61 388.349 1317.51 386.708C1313.49 384.985 1309.19 384.124 1304.59 384.124C1300 384.124 1295.65 384.985 1291.55 386.708C1287.53 388.349 1284 390.769 1280.96 393.969C1278.01 397.086 1275.67 400.86 1273.95 405.29C1272.23 409.638 1271.37 414.519 1271.37 419.934C1271.37 425.02 1272.23 429.737 1273.95 434.085C1275.67 438.433 1278.01 442.207 1280.96 445.407C1284 448.606 1287.53 451.149 1291.55 453.036C1295.65 454.841 1300 455.743 1304.59 455.743C1309.19 455.743 1313.49 454.882 1317.51 453.159C1321.61 451.436 1325.18 449.016 1328.22 445.899C1331.25 442.781 1333.63 439.008 1335.36 434.577C1337.16 430.147 1338.06 425.266 1338.06 419.934ZM1424.08 487H1390.49V355.205H1398.61L1409.68 368.003C1415.1 363.081 1421.21 359.307 1428.02 356.682C1434.91 353.975 1442.09 352.621 1449.55 352.621C1457.59 352.621 1465.18 354.18 1472.32 357.297C1479.46 360.333 1485.69 364.558 1491.02 369.972C1496.36 375.305 1500.54 381.581 1503.58 388.8C1506.69 395.937 1508.25 403.567 1508.25 411.689V487H1474.66V411.689C1474.66 408.243 1474 405.003 1472.69 401.967C1471.38 398.85 1469.57 396.143 1467.27 393.845C1464.98 391.548 1462.31 389.744 1459.28 388.431C1456.24 387.118 1453 386.462 1449.55 386.462C1446.03 386.462 1442.7 387.118 1439.59 388.431C1436.47 389.744 1433.76 391.548 1431.46 393.845C1429.17 396.143 1427.36 398.85 1426.05 401.967C1424.74 405.003 1424.08 408.243 1424.08 411.689V487ZM1596.61 487C1588.49 487 1580.86 485.482 1573.72 482.447C1566.58 479.329 1560.31 475.104 1554.89 469.772C1549.56 464.357 1545.33 458.081 1542.22 450.944C1539.18 443.807 1537.66 436.177 1537.66 428.055V388.923H1521.3V355.452H1537.66V302.783H1571.13V355.452H1622.08V388.923H1571.13V428.055C1571.13 431.583 1571.79 434.906 1573.1 438.023C1574.42 441.059 1576.22 443.725 1578.52 446.022C1580.82 448.319 1583.52 450.165 1586.64 451.559C1589.76 452.872 1593.08 453.528 1596.61 453.528H1622.08V487H1596.61ZM1693.45 454.759C1694.77 455.169 1696.08 455.456 1697.39 455.62C1698.7 455.702 1700.02 455.743 1701.33 455.743C1704.61 455.743 1707.77 455.292 1710.8 454.39C1713.84 453.487 1716.67 452.216 1719.3 450.575C1722 448.852 1724.38 446.801 1726.43 444.422C1728.57 441.961 1730.29 439.254 1731.6 436.3L1756.21 461.035C1753.1 465.465 1749.49 469.444 1745.38 472.971C1741.36 476.499 1736.98 479.493 1732.22 481.955C1727.54 484.416 1722.58 486.262 1717.33 487.492C1712.16 488.805 1706.83 489.461 1701.33 489.461C1692.06 489.461 1683.32 487.738 1675.12 484.293C1667 480.847 1659.86 476.048 1653.71 469.895C1647.64 463.742 1642.84 456.441 1639.31 447.991C1635.78 439.459 1634.02 430.106 1634.02 419.934C1634.02 409.515 1635.78 399.998 1639.31 391.384C1642.84 382.77 1647.64 375.428 1653.71 369.357C1659.86 363.286 1667 358.569 1675.12 355.205C1683.32 351.842 1692.06 350.16 1701.33 350.16C1706.83 350.16 1712.2 350.816 1717.45 352.129C1722.7 353.442 1727.66 355.328 1732.34 357.79C1737.1 360.251 1741.53 363.286 1745.63 366.896C1749.73 370.424 1753.34 374.402 1756.46 378.832L1693.45 454.759ZM1710.68 385.478C1709.12 384.903 1707.56 384.534 1706.01 384.37C1704.53 384.206 1702.97 384.124 1701.33 384.124C1696.74 384.124 1692.39 384.985 1688.29 386.708C1684.27 388.349 1680.74 390.728 1677.7 393.845C1674.75 396.963 1672.41 400.737 1670.69 405.167C1668.97 409.515 1668.1 414.437 1668.1 419.934C1668.1 421.164 1668.14 422.559 1668.23 424.118C1668.39 425.676 1668.6 427.276 1668.84 428.917C1669.17 430.476 1669.54 431.993 1669.95 433.47C1670.36 434.947 1670.89 436.259 1671.55 437.408L1710.68 385.478ZM1845.8 487H1769.01V453.528H1845.8C1848.1 453.528 1850.06 452.708 1851.71 451.067C1853.35 449.426 1854.17 447.458 1854.17 445.16C1854.17 442.781 1853.35 441.223 1851.71 440.484C1850.06 439.746 1848.1 439.377 1845.8 439.377H1810.85C1805.03 439.377 1799.57 438.269 1794.48 436.054C1789.4 433.839 1784.97 430.845 1781.19 427.071C1777.42 423.215 1774.43 418.744 1772.21 413.658C1770.08 408.571 1769.01 403.116 1769.01 397.291C1769.01 391.466 1770.08 386.011 1772.21 380.924C1774.43 375.838 1777.42 371.408 1781.19 367.634C1784.97 363.86 1789.4 360.907 1794.48 358.774C1799.57 356.559 1805.03 355.452 1810.85 355.452H1878.9V388.923H1810.85C1808.55 388.923 1806.58 389.744 1804.94 391.384C1803.3 393.025 1802.48 394.994 1802.48 397.291C1802.48 399.67 1803.3 401.721 1804.94 403.444C1806.58 405.085 1808.55 405.905 1810.85 405.905H1845.8C1851.54 405.905 1856.96 406.89 1862.04 408.858C1867.13 410.745 1871.56 413.412 1875.33 416.857C1879.11 420.303 1882.1 424.446 1884.32 429.286C1886.53 434.126 1887.64 439.418 1887.64 445.16C1887.64 450.985 1886.53 456.441 1884.32 461.527C1882.1 466.531 1879.11 470.962 1875.33 474.817C1871.56 478.591 1867.13 481.585 1862.04 483.801C1856.96 485.934 1851.54 487 1845.8 487ZM1971.69 487C1963.57 487 1955.94 485.482 1948.8 482.447C1941.66 479.329 1935.38 475.104 1929.97 469.772C1924.64 464.357 1920.41 458.081 1917.3 450.944C1914.26 443.807 1912.74 436.177 1912.74 428.055V388.923H1896.38V355.452H1912.74V302.783H1946.21V355.452H1997.16V388.923H1946.21V428.055C1946.21 431.583 1946.87 434.906 1948.18 438.023C1949.5 441.059 1951.3 443.725 1953.6 446.022C1955.89 448.319 1958.6 450.165 1961.72 451.559C1964.84 452.872 1968.16 453.528 1971.69 453.528H1997.16V487H1971.69Z" fill="white"/>
<path d="M1352.23 533C1348.49 532.976 1344.5 534.027 1342.1 535.628C1335.93 539.747 1313.26 610.259 1303.81 646.492C1303.81 646.492 1301.76 654.034 1299.05 671.392C1298.62 674.211 1297.18 685.247 1296.55 688.661C1294.2 701.448 1285.05 708.311 1277.16 706.804C1267.29 704.922 1265.88 690.292 1268.52 679.401C1271.42 667.464 1281.24 653.985 1292.55 657.253C1298 658.524 1300.82 657.884 1301.18 654.25C1301.65 649.555 1296.05 646.742 1296.05 646.742C1274.36 635.826 1254.98 653.684 1250 678.9C1244.19 708.325 1262.38 731.719 1291.92 714.937C1301.17 709.686 1300.67 721.949 1321.45 721.193C1336.56 719.722 1345.19 708.56 1337.34 702.423C1332.21 698.404 1328.75 706.277 1320.2 705.176C1301.93 702.829 1322.38 649.78 1332.96 616.711C1341.99 588.507 1352.04 568.252 1360.62 545.388C1364.06 536.194 1358.48 533.039 1352.23 533ZM1022.15 539.007C990.785 539.838 932.567 569.772 888.635 604.449C870.621 620.109 860.245 623.829 871.993 636.356C882.433 646.796 889.136 638.859 889.136 638.859C899.056 631.026 920.463 609.133 934.556 598.692C954.627 583.822 982.34 562.39 1006.88 556.648C1026.35 551.714 1032.27 557.455 1029.65 577.295C1028.12 594.322 1015.01 632.601 1015.01 632.601C1015.01 632.601 994.863 641.625 988.862 643.863C984.172 645.604 979.267 644.418 978.727 655.125C978.487 666.606 985.454 662.281 990.114 660.505C993.717 659.128 1002.22 655.059 1005.38 653.748C1007.73 651.921 1010.31 653.482 1009.01 656.876C1006.66 664.448 1002.4 676.782 994.368 694.539C984.188 718.819 965.934 751.998 963.587 760.357C963.847 765.837 969.818 766.623 977.727 766.738C984.999 766.177 988.362 761.107 988.362 761.107C988.362 761.107 997.837 740.731 1012.39 704.924C1022.95 678.918 1029.87 657.436 1032.78 647.741C1034.35 642 1037.73 640.779 1042.17 639.733C1048.8 637.556 1058.12 634.632 1063.81 633.601C1078.21 630.048 1082.35 630.814 1084.21 620.839C1085.51 613.902 1082.46 610.704 1082.46 610.704C1082.46 610.704 1051.09 620.483 1044.8 622.216C1039.32 624.563 1040.29 618.837 1040.29 618.837C1040.29 618.837 1039.53 622.455 1042.92 607.575C1053.21 562.309 1047.22 550.262 1039.04 543.385C1035.16 540.177 1029.38 538.815 1022.15 539.007ZM1447.46 619.339C1442.07 619.105 1429.78 628.242 1434.57 651.497C1428.04 676.032 1378.25 718.851 1371.63 701.548C1370.01 697.334 1374.37 690.406 1385.77 688.034C1404.56 684.115 1402.99 672.428 1394.03 671.267C1379.93 669.441 1376.04 669.446 1359.24 665.511C1352.61 664.811 1352.81 656.002 1360.62 656.127C1363.84 655.996 1371.9 657.108 1389.15 657.754C1407.19 658.429 1410.76 644.394 1410.04 635.731C1391.63 639.705 1387.26 640.736 1371.38 640.736C1354.71 640.736 1334.09 645.341 1333.71 660.006C1333.34 674.575 1352.46 677.864 1362.37 680.652C1365.11 681.308 1366.07 683.594 1364.25 685.031C1360.01 688.41 1350.49 692.829 1349.36 700.797C1347.74 712.078 1357.99 720.968 1371 720.692C1388.33 720.332 1407.55 712.979 1425.93 690.912C1431.13 684.68 1436.98 674.154 1440.57 669.515C1441.43 667.843 1443.86 667.012 1444.95 667.138C1448.24 667.863 1452.96 670.327 1452.34 673.895C1451.38 679.355 1436.43 696.428 1446.33 706.678C1452.41 712.974 1467.79 717.428 1479.99 708.555C1491.41 700.251 1487.39 692.714 1482.87 692.164C1479.63 691.772 1470.54 703.134 1463.22 695.042C1457.15 688.319 1471.62 674.47 1474.48 669.515C1478.62 662.367 1462.5 656.867 1455.71 647.993C1451.34 642.158 1462.69 624.335 1448.46 619.59C1448.17 619.492 1447.81 619.355 1447.46 619.339H1447.46ZM1480.49 628.349C1477.62 628.349 1475.13 629.325 1473.11 631.352C1471.07 633.389 1470.1 635.866 1470.1 638.734C1470.1 641.632 1471.09 644.085 1473.11 646.117C1475.13 648.159 1477.6 649.245 1480.49 649.245C1483.38 649.245 1485.83 648.159 1487.87 646.117C1489.91 644.07 1491 641.622 1491 638.734C1491 635.856 1489.91 633.378 1487.87 631.352C1485.83 629.325 1483.38 628.349 1480.49 628.349ZM1480.49 629.725C1482.99 629.725 1485.1 630.591 1486.87 632.353C1488.62 634.104 1489.5 636.252 1489.5 638.734C1489.5 641.237 1488.62 643.354 1486.87 645.115C1485.11 646.877 1483 647.743 1480.49 647.743C1477.98 647.743 1475.86 646.877 1474.11 645.115C1472.37 643.353 1471.48 641.236 1471.48 638.734C1471.48 636.252 1472.36 634.105 1474.11 632.353C1475.87 630.59 1478 629.725 1480.49 629.725ZM1476.23 632.978V644.365H1478.24V639.986H1479.86C1480.96 639.986 1481.68 639.99 1482.11 640.236C1482.86 640.661 1483.24 641.541 1483.24 642.863V643.864L1483.37 644.24C1483.38 644.29 1483.36 644.325 1483.37 644.365H1485.24L1485.12 644.24C1485.07 644.145 1485.13 644.045 1485.12 643.739C1485.1 643.439 1484.99 643.123 1484.99 642.863V641.987C1484.99 641.411 1484.78 640.841 1484.37 640.235C1483.95 639.635 1483.38 639.249 1482.49 639.109C1483.2 638.993 1483.72 638.864 1484.12 638.608C1484.86 638.123 1485.24 637.257 1485.24 636.231C1485.24 634.79 1484.68 633.849 1483.49 633.353C1482.83 633.078 1481.67 632.978 1480.24 632.978L1476.23 632.978ZM1478.24 634.354H1479.99C1481.14 634.354 1481.97 634.574 1482.49 634.854C1483.01 635.14 1483.24 635.651 1483.24 636.481C1483.24 637.357 1482.92 637.923 1482.12 638.233C1481.68 638.403 1480.99 638.483 1480.11 638.483H1478.24V634.354ZM1135.01 637.733C1119.7 642.297 1111.94 641.737 1095.72 641.737C1078.7 641.737 1055.7 644.109 1056.68 660.506C1057.51 674.295 1076.93 678.143 1086.96 679.275C1089.84 679.01 1090.68 681.718 1088.59 683.154C1084.06 687.739 1078.9 694.04 1078.2 699.17C1076.69 710.272 1082.37 720.062 1096.47 719.816C1111.61 719.556 1116.57 708.565 1141.89 693.164C1148.96 688.865 1157.79 681.608 1161.41 681.026C1162.8 681.026 1164.8 681.482 1164.67 684.154C1162.52 694.259 1160.18 701.067 1162.79 709.68C1164.63 715.747 1172.65 719.566 1178.43 715.186C1188.09 707.878 1188.18 703.624 1200.7 687.157C1202.78 684.435 1210.45 671.982 1213.97 673.644C1216.89 675.02 1216.01 679.09 1215.47 682.277C1212.84 697.694 1206.15 722.074 1236.61 718.314C1243.86 717.423 1249.75 712.487 1244.25 707.303C1240.92 704.165 1237.17 706.392 1232.99 705.426C1223.21 703.174 1247.4 658.638 1235.87 650.37C1219.64 638.748 1204.6 659.349 1193.32 674.394C1188.87 680.326 1185.57 677.738 1182.69 669.389C1179.47 660.1 1160.23 666.927 1149.15 672.643C1131.48 681.757 1098.76 712.253 1095.72 697.043C1095.2 694.415 1099.54 688.544 1107.48 685.656C1116.8 682.267 1127.25 679.244 1127.25 673.644C1127.25 669.309 1124.67 666.232 1121.87 666.386C1108.87 667.107 1093.75 670.516 1076.45 665.761C1072.51 665.73 1070.78 655.835 1082.46 657.128C1085.55 657.472 1092.46 657.983 1118.62 658.504C1137.05 658.874 1137.48 645.061 1135.01 637.733H1135.01Z" fill="#F2F2F2"/>
<mask id="path-4-outside-1_5_11" maskUnits="userSpaceOnUse" x="-1" y="0" width="355" height="773" fill="black">
<rect fill="white" x="-1" width="355" height="773"/>
<path d="M315.691 22.1774C333.493 36.2581 344.738 57.0895 348.031 79.5017C349.891 108.563 345.001 132.001 325.727 154.15C318.762 161.583 310.518 166.984 302.031 172.502C301.364 172.94 300.696 173.378 300.008 173.83C288.794 181.187 288.794 181.187 285.766 182.435C283.254 183.98 282.933 185.745 282.031 188.502C281.519 189.739 281.519 189.739 280.996 191.002C280.657 191.827 280.318 192.652 279.969 193.502C279.456 194.739 279.456 194.739 278.934 196.002C274.414 208.523 278.527 224.473 280.396 237.335C280.777 239.97 281.143 242.607 281.508 245.244C284.673 267.637 289.907 289.524 295.306 311.467C317.921 403.441 317.921 403.441 320.031 445.502C320.114 446.444 320.197 447.387 320.283 448.358C320.56 453.143 320.607 456.536 317.555 460.396C314.047 463.85 310.029 466.009 305.656 468.189C296.374 473.077 288.185 478.927 280.031 485.502C279.197 486.173 278.363 486.845 277.504 487.537C258.363 503.665 245.751 526.717 239.031 550.502C238.842 551.165 238.653 551.829 238.458 552.513C237.088 557.467 236.033 562.462 235.031 567.502C234.86 568.363 234.688 569.225 234.512 570.113C230.57 590.817 230.495 611.178 230.626 632.173C230.651 636.949 230.653 641.726 230.658 646.502C230.67 655.501 230.703 664.499 230.743 673.497C230.797 685.69 230.818 697.882 230.841 710.074C230.879 729.217 230.958 748.359 231.031 767.502C183.181 767.502 135.331 767.502 86.0312 767.502C86.3613 762.222 86.6912 756.942 87.0312 751.502C87.292 745.368 87.4409 739.233 87.582 733.095C87.6028 732.216 87.6237 731.336 87.6451 730.43C88.1907 706.776 88.2186 683.118 88.2166 659.458C88.2164 653.16 88.2304 646.862 88.2473 640.565C88.2584 635.645 88.2605 630.726 88.2599 625.807C88.2611 623.482 88.2655 621.157 88.2733 618.832C88.2831 615.608 88.2802 612.384 88.2742 609.16C88.2798 608.224 88.2854 607.288 88.2912 606.323C88.2551 598.694 87.7385 590.528 83.7812 583.814C83.4048 583.15 83.0284 582.486 82.6406 581.802C78.1403 575.369 73.0523 570.725 66.7188 566.127C45.4238 550.199 45.4238 550.199 43.0312 537.502C41.5166 520.741 47.7708 504.801 52.7319 489.069C55.4028 480.598 57.9014 472.125 60.0312 463.502C55.9209 461.923 52.441 461.054 48.0312 461.502C44.5875 464.239 42.0806 467.153 39.4062 470.611C36.3492 474.332 34.8022 475.3 30.0781 475.838C23.2544 475.918 17.5245 475.901 12.0312 471.502C6.70372 466.229 5.08034 459.987 5 452.646C5.59408 441.166 8.83857 433.061 16.6172 424.595C21.2911 420.542 25.5103 418.918 31.5938 419.154C37.5891 420.009 42.4585 422.096 46.9688 426.127C51.0152 432.748 52.3236 439.859 53.0312 447.502C56.9913 448.822 60.9513 450.142 65.0312 451.502C65.3 450.056 65.5688 448.611 65.8457 447.122C66.9075 441.823 68.3692 436.731 70 431.584C70.281 430.682 70.562 429.781 70.8514 428.852C71.7399 426.004 72.6353 423.159 73.5312 420.314C74.4257 417.458 75.3186 414.601 76.2111 411.744C76.7639 409.976 77.3181 408.209 77.8739 406.442C78.5995 404.13 79.3174 401.817 80.0312 399.502C80.2387 398.84 80.4462 398.178 80.6599 397.496C81.6309 394.289 82.0312 391.905 82.0312 388.502C78.4012 387.512 74.7713 386.522 71.0312 385.502C70.165 386.719 69.2987 387.935 68.4062 389.189C64.3189 394.585 60.3661 399.012 53.3711 400.408C46.7065 400.675 40.0761 398.806 34.9062 394.564C29.6628 389.673 29.0242 383.769 28.7812 376.877C28.9519 365.527 32.423 356.11 40.4688 348.064C46.8543 344.171 52.8926 343.949 60.0312 345.502C65.5605 347.503 70.4283 350.225 73.0938 355.674C74.2291 359.098 74.4544 362.215 74.6562 365.814C74.7684 367.696 74.7684 367.696 74.8828 369.615C74.9318 370.568 74.9808 371.52 75.0312 372.502C75.6345 372.634 76.2378 372.767 76.8594 372.904C77.6586 373.081 78.4578 373.257 79.2812 373.439C80.4646 373.7 80.4646 373.7 81.6719 373.966C83.8001 374.449 85.9151 374.969 88.0312 375.502C88.2633 374.341 88.4953 373.181 88.7344 371.986C90.1715 365.526 92.166 359.233 94.1146 352.914C95.2429 349.254 96.3599 345.591 97.4766 341.927C97.6969 341.205 97.9172 340.483 98.1443 339.738C100.896 330.694 103.484 321.605 106.031 312.502C104.596 311.996 103.158 311.497 101.719 311.002C100.918 310.723 100.118 310.445 99.293 310.158C96.9436 309.362 96.9436 309.362 94.0312 309.502C92.5869 311.105 92.5869 311.105 91.2812 313.189C87.6134 318.335 83.4342 322.267 77.0312 323.502C69.6565 324.506 64.2057 322.529 58.0312 318.502C52.5779 313.457 51.9363 306.89 51.6562 299.814C51.8938 289.36 54.7047 280.923 61.9336 273.306C67.7063 268.34 72.8678 267.177 80.332 267.646C86.638 268.637 90.8523 271.751 95.0312 276.502C97.5231 280.201 97.6898 284.423 98.1562 288.752C98.2858 289.869 98.2858 289.869 98.418 291.009C98.6291 292.839 98.8311 294.67 99.0312 296.502C102.991 297.492 106.951 298.482 111.031 299.502C111.263 298.341 111.495 297.181 111.734 295.986C113.172 289.526 115.166 283.233 117.115 276.914C118.243 273.254 119.36 269.591 120.477 265.927C120.697 265.205 120.917 264.483 121.144 263.738C123.896 254.694 126.484 245.605 129.031 236.502C124.741 235.512 120.451 234.522 116.031 233.502C115.371 235.152 114.711 236.802 114.031 238.502C110.843 242.93 108.27 245.818 103.031 247.502C95.3641 248.312 88.3367 248.343 82.0312 243.502C77.3679 239.245 75.3072 234.494 74.7305 228.24C74.6823 214.166 77.3516 205.512 87.1172 195.326C90.4996 192.102 93.7175 191.372 98.2812 191.189C105.093 191.404 110.839 192.879 115.906 197.627C119.755 202.31 120.255 207.719 120.707 213.598C120.903 216.066 120.903 216.066 122.031 219.502C125.611 221.588 129.052 222.526 133.031 223.502C135.387 217.464 137.316 211.387 139.098 205.158C139.377 204.189 139.657 203.221 139.945 202.223C140.532 200.186 141.118 198.149 141.702 196.112C142.591 193.01 143.486 189.91 144.381 186.81C144.953 184.822 145.526 182.834 146.098 180.845C146.495 179.469 146.495 179.469 146.9 178.064C148.379 172.898 149.76 167.723 151.031 162.502C147.071 161.512 143.111 160.522 139.031 159.502C138.371 161.152 137.711 162.802 137.031 164.502C132.576 169.538 127.864 173.648 121.031 174.502C112.978 174.706 107.483 171.767 101.719 166.314C96.7876 158.096 96.1805 149.921 98.1562 140.689C100.592 131.594 105.027 123.754 113.031 118.502C119.248 116.429 126.122 116.802 132.145 119.392C136.642 122.037 140.035 125.554 142.406 130.189C143.363 135.259 143.715 140.357 144.031 145.502C145.467 146.007 146.905 146.506 148.344 147.002C149.144 147.28 149.945 147.559 150.77 147.845C153.119 148.641 153.119 148.641 156.031 148.502C159.481 137.57 162.919 126.635 166.344 115.696C166.975 113.681 167.607 111.666 168.239 109.651C169.239 106.457 170.231 103.261 171.219 100.064C171.51 99.1379 171.8 98.2116 172.1 97.2573C172.36 96.4111 172.619 95.5649 172.887 94.6931C173.11 93.9732 173.333 93.2533 173.563 92.5117C174.182 90.1963 174.182 90.1963 174.031 86.5017C172.814 86.151 171.597 85.8004 170.344 85.4392C169.659 85.2419 168.975 85.0447 168.27 84.8415C165.459 84.4148 163.73 84.5698 161.031 85.5017C158.769 87.6848 158.769 87.6848 156.719 90.3767C152.89 94.7999 149.946 97.7281 144.031 98.5017C137.155 98.7438 130.604 96.8022 125.492 92.0798C119.159 84.8946 119.543 77.6326 120.031 68.5017C121.168 58.9108 125.818 50.8533 133.164 44.779C138.337 41.2402 145.342 41.8623 151.285 42.8923C157.063 44.6561 160.917 48.3951 164.031 53.5017C165.98 59.0452 166.285 64.6737 166.031 70.5017C166.707 70.6344 167.382 70.7672 168.078 70.904C168.97 71.0806 169.862 71.2572 170.781 71.4392C171.663 71.6132 172.545 71.7872 173.453 71.9665C175.664 72.4253 177.846 72.935 180.031 73.5017C180.341 72.6973 180.65 71.8929 180.969 71.0642C182.031 68.5017 182.031 68.5017 183.031 67.5017C183.237 66.2848 183.444 65.0679 183.656 63.8142C187.618 45.3843 201.891 28.2577 217.324 18.1227C248.055 -0.27997 286.601 0.314238 315.691 22.1774Z"/>
</mask>
<path d="M315.691 22.1774C333.493 36.2581 344.738 57.0895 348.031 79.5017C349.891 108.563 345.001 132.001 325.727 154.15C318.762 161.583 310.518 166.984 302.031 172.502C301.364 172.94 300.696 173.378 300.008 173.83C288.794 181.187 288.794 181.187 285.766 182.435C283.254 183.98 282.933 185.745 282.031 188.502C281.519 189.739 281.519 189.739 280.996 191.002C280.657 191.827 280.318 192.652 279.969 193.502C279.456 194.739 279.456 194.739 278.934 196.002C274.414 208.523 278.527 224.473 280.396 237.335C280.777 239.97 281.143 242.607 281.508 245.244C284.673 267.637 289.907 289.524 295.306 311.467C317.921 403.441 317.921 403.441 320.031 445.502C320.114 446.444 320.197 447.387 320.283 448.358C320.56 453.143 320.607 456.536 317.555 460.396C314.047 463.85 310.029 466.009 305.656 468.189C296.374 473.077 288.185 478.927 280.031 485.502C279.197 486.173 278.363 486.845 277.504 487.537C258.363 503.665 245.751 526.717 239.031 550.502C238.842 551.165 238.653 551.829 238.458 552.513C237.088 557.467 236.033 562.462 235.031 567.502C234.86 568.363 234.688 569.225 234.512 570.113C230.57 590.817 230.495 611.178 230.626 632.173C230.651 636.949 230.653 641.726 230.658 646.502C230.67 655.501 230.703 664.499 230.743 673.497C230.797 685.69 230.818 697.882 230.841 710.074C230.879 729.217 230.958 748.359 231.031 767.502C183.181 767.502 135.331 767.502 86.0312 767.502C86.3613 762.222 86.6912 756.942 87.0312 751.502C87.292 745.368 87.4409 739.233 87.582 733.095C87.6028 732.216 87.6237 731.336 87.6451 730.43C88.1907 706.776 88.2186 683.118 88.2166 659.458C88.2164 653.16 88.2304 646.862 88.2473 640.565C88.2584 635.645 88.2605 630.726 88.2599 625.807C88.2611 623.482 88.2655 621.157 88.2733 618.832C88.2831 615.608 88.2802 612.384 88.2742 609.16C88.2798 608.224 88.2854 607.288 88.2912 606.323C88.2551 598.694 87.7385 590.528 83.7812 583.814C83.4048 583.15 83.0284 582.486 82.6406 581.802C78.1403 575.369 73.0523 570.725 66.7188 566.127C45.4238 550.199 45.4238 550.199 43.0312 537.502C41.5166 520.741 47.7708 504.801 52.7319 489.069C55.4028 480.598 57.9014 472.125 60.0312 463.502C55.9209 461.923 52.441 461.054 48.0312 461.502C44.5875 464.239 42.0806 467.153 39.4062 470.611C36.3492 474.332 34.8022 475.3 30.0781 475.838C23.2544 475.918 17.5245 475.901 12.0312 471.502C6.70372 466.229 5.08034 459.987 5 452.646C5.59408 441.166 8.83857 433.061 16.6172 424.595C21.2911 420.542 25.5103 418.918 31.5938 419.154C37.5891 420.009 42.4585 422.096 46.9688 426.127C51.0152 432.748 52.3236 439.859 53.0312 447.502C56.9913 448.822 60.9513 450.142 65.0312 451.502C65.3 450.056 65.5688 448.611 65.8457 447.122C66.9075 441.823 68.3692 436.731 70 431.584C70.281 430.682 70.562 429.781 70.8514 428.852C71.7399 426.004 72.6353 423.159 73.5312 420.314C74.4257 417.458 75.3186 414.601 76.2111 411.744C76.7639 409.976 77.3181 408.209 77.8739 406.442C78.5995 404.13 79.3174 401.817 80.0312 399.502C80.2387 398.84 80.4462 398.178 80.6599 397.496C81.6309 394.289 82.0312 391.905 82.0312 388.502C78.4012 387.512 74.7713 386.522 71.0312 385.502C70.165 386.719 69.2987 387.935 68.4062 389.189C64.3189 394.585 60.3661 399.012 53.3711 400.408C46.7065 400.675 40.0761 398.806 34.9062 394.564C29.6628 389.673 29.0242 383.769 28.7812 376.877C28.9519 365.527 32.423 356.11 40.4688 348.064C46.8543 344.171 52.8926 343.949 60.0312 345.502C65.5605 347.503 70.4283 350.225 73.0938 355.674C74.2291 359.098 74.4544 362.215 74.6562 365.814C74.7684 367.696 74.7684 367.696 74.8828 369.615C74.9318 370.568 74.9808 371.52 75.0312 372.502C75.6345 372.634 76.2378 372.767 76.8594 372.904C77.6586 373.081 78.4578 373.257 79.2812 373.439C80.4646 373.7 80.4646 373.7 81.6719 373.966C83.8001 374.449 85.9151 374.969 88.0312 375.502C88.2633 374.341 88.4953 373.181 88.7344 371.986C90.1715 365.526 92.166 359.233 94.1146 352.914C95.2429 349.254 96.3599 345.591 97.4766 341.927C97.6969 341.205 97.9172 340.483 98.1443 339.738C100.896 330.694 103.484 321.605 106.031 312.502C104.596 311.996 103.158 311.497 101.719 311.002C100.918 310.723 100.118 310.445 99.293 310.158C96.9436 309.362 96.9436 309.362 94.0312 309.502C92.5869 311.105 92.5869 311.105 91.2812 313.189C87.6134 318.335 83.4342 322.267 77.0312 323.502C69.6565 324.506 64.2057 322.529 58.0312 318.502C52.5779 313.457 51.9363 306.89 51.6562 299.814C51.8938 289.36 54.7047 280.923 61.9336 273.306C67.7063 268.34 72.8678 267.177 80.332 267.646C86.638 268.637 90.8523 271.751 95.0312 276.502C97.5231 280.201 97.6898 284.423 98.1562 288.752C98.2858 289.869 98.2858 289.869 98.418 291.009C98.6291 292.839 98.8311 294.67 99.0312 296.502C102.991 297.492 106.951 298.482 111.031 299.502C111.263 298.341 111.495 297.181 111.734 295.986C113.172 289.526 115.166 283.233 117.115 276.914C118.243 273.254 119.36 269.591 120.477 265.927C120.697 265.205 120.917 264.483 121.144 263.738C123.896 254.694 126.484 245.605 129.031 236.502C124.741 235.512 120.451 234.522 116.031 233.502C115.371 235.152 114.711 236.802 114.031 238.502C110.843 242.93 108.27 245.818 103.031 247.502C95.3641 248.312 88.3367 248.343 82.0312 243.502C77.3679 239.245 75.3072 234.494 74.7305 228.24C74.6823 214.166 77.3516 205.512 87.1172 195.326C90.4996 192.102 93.7175 191.372 98.2812 191.189C105.093 191.404 110.839 192.879 115.906 197.627C119.755 202.31 120.255 207.719 120.707 213.598C120.903 216.066 120.903 216.066 122.031 219.502C125.611 221.588 129.052 222.526 133.031 223.502C135.387 217.464 137.316 211.387 139.098 205.158C139.377 204.189 139.657 203.221 139.945 202.223C140.532 200.186 141.118 198.149 141.702 196.112C142.591 193.01 143.486 189.91 144.381 186.81C144.953 184.822 145.526 182.834 146.098 180.845C146.495 179.469 146.495 179.469 146.9 178.064C148.379 172.898 149.76 167.723 151.031 162.502C147.071 161.512 143.111 160.522 139.031 159.502C138.371 161.152 137.711 162.802 137.031 164.502C132.576 169.538 127.864 173.648 121.031 174.502C112.978 174.706 107.483 171.767 101.719 166.314C96.7876 158.096 96.1805 149.921 98.1562 140.689C100.592 131.594 105.027 123.754 113.031 118.502C119.248 116.429 126.122 116.802 132.145 119.392C136.642 122.037 140.035 125.554 142.406 130.189C143.363 135.259 143.715 140.357 144.031 145.502C145.467 146.007 146.905 146.506 148.344 147.002C149.144 147.28 149.945 147.559 150.77 147.845C153.119 148.641 153.119 148.641 156.031 148.502C159.481 137.57 162.919 126.635 166.344 115.696C166.975 113.681 167.607 111.666 168.239 109.651C169.239 106.457 170.231 103.261 171.219 100.064C171.51 99.1379 171.8 98.2116 172.1 97.2573C172.36 96.4111 172.619 95.5649 172.887 94.6931C173.11 93.9732 173.333 93.2533 173.563 92.5117C174.182 90.1963 174.182 90.1963 174.031 86.5017C172.814 86.151 171.597 85.8004 170.344 85.4392C169.659 85.2419 168.975 85.0447 168.27 84.8415C165.459 84.4148 163.73 84.5698 161.031 85.5017C158.769 87.6848 158.769 87.6848 156.719 90.3767C152.89 94.7999 149.946 97.7281 144.031 98.5017C137.155 98.7438 130.604 96.8022 125.492 92.0798C119.159 84.8946 119.543 77.6326 120.031 68.5017C121.168 58.9108 125.818 50.8533 133.164 44.779C138.337 41.2402 145.342 41.8623 151.285 42.8923C157.063 44.6561 160.917 48.3951 164.031 53.5017C165.98 59.0452 166.285 64.6737 166.031 70.5017C166.707 70.6344 167.382 70.7672 168.078 70.904C168.97 71.0806 169.862 71.2572 170.781 71.4392C171.663 71.6132 172.545 71.7872 173.453 71.9665C175.664 72.4253 177.846 72.935 180.031 73.5017C180.341 72.6973 180.65 71.8929 180.969 71.0642C182.031 68.5017 182.031 68.5017 183.031 67.5017C183.237 66.2848 183.444 65.0679 183.656 63.8142C187.618 45.3843 201.891 28.2577 217.324 18.1227C248.055 -0.27997 286.601 0.314238 315.691 22.1774Z" fill="#F2F2F2" fill-opacity="0.01"/>
<path d="M315.691 22.1774C333.493 36.2581 344.738 57.0895 348.031 79.5017C349.891 108.563 345.001 132.001 325.727 154.15C318.762 161.583 310.518 166.984 302.031 172.502C301.364 172.94 300.696 173.378 300.008 173.83C288.794 181.187 288.794 181.187 285.766 182.435C283.254 183.98 282.933 185.745 282.031 188.502C281.519 189.739 281.519 189.739 280.996 191.002C280.657 191.827 280.318 192.652 279.969 193.502C279.456 194.739 279.456 194.739 278.934 196.002C274.414 208.523 278.527 224.473 280.396 237.335C280.777 239.97 281.143 242.607 281.508 245.244C284.673 267.637 289.907 289.524 295.306 311.467C317.921 403.441 317.921 403.441 320.031 445.502C320.114 446.444 320.197 447.387 320.283 448.358C320.56 453.143 320.607 456.536 317.555 460.396C314.047 463.85 310.029 466.009 305.656 468.189C296.374 473.077 288.185 478.927 280.031 485.502C279.197 486.173 278.363 486.845 277.504 487.537C258.363 503.665 245.751 526.717 239.031 550.502C238.842 551.165 238.653 551.829 238.458 552.513C237.088 557.467 236.033 562.462 235.031 567.502C234.86 568.363 234.688 569.225 234.512 570.113C230.57 590.817 230.495 611.178 230.626 632.173C230.651 636.949 230.653 641.726 230.658 646.502C230.67 655.501 230.703 664.499 230.743 673.497C230.797 685.69 230.818 697.882 230.841 710.074C230.879 729.217 230.958 748.359 231.031 767.502C183.181 767.502 135.331 767.502 86.0312 767.502C86.3613 762.222 86.6912 756.942 87.0312 751.502C87.292 745.368 87.4409 739.233 87.582 733.095C87.6028 732.216 87.6237 731.336 87.6451 730.43C88.1907 706.776 88.2186 683.118 88.2166 659.458C88.2164 653.16 88.2304 646.862 88.2473 640.565C88.2584 635.645 88.2605 630.726 88.2599 625.807C88.2611 623.482 88.2655 621.157 88.2733 618.832C88.2831 615.608 88.2802 612.384 88.2742 609.16C88.2798 608.224 88.2854 607.288 88.2912 606.323C88.2551 598.694 87.7385 590.528 83.7812 583.814C83.4048 583.15 83.0284 582.486 82.6406 581.802C78.1403 575.369 73.0523 570.725 66.7188 566.127C45.4238 550.199 45.4238 550.199 43.0312 537.502C41.5166 520.741 47.7708 504.801 52.7319 489.069C55.4028 480.598 57.9014 472.125 60.0312 463.502C55.9209 461.923 52.441 461.054 48.0312 461.502C44.5875 464.239 42.0806 467.153 39.4062 470.611C36.3492 474.332 34.8022 475.3 30.0781 475.838C23.2544 475.918 17.5245 475.901 12.0312 471.502C6.70372 466.229 5.08034 459.987 5 452.646C5.59408 441.166 8.83857 433.061 16.6172 424.595C21.2911 420.542 25.5103 418.918 31.5938 419.154C37.5891 420.009 42.4585 422.096 46.9688 426.127C51.0152 432.748 52.3236 439.859 53.0312 447.502C56.9913 448.822 60.9513 450.142 65.0312 451.502C65.3 450.056 65.5688 448.611 65.8457 447.122C66.9075 441.823 68.3692 436.731 70 431.584C70.281 430.682 70.562 429.781 70.8514 428.852C71.7399 426.004 72.6353 423.159 73.5312 420.314C74.4257 417.458 75.3186 414.601 76.2111 411.744C76.7639 409.976 77.3181 408.209 77.8739 406.442C78.5995 404.13 79.3174 401.817 80.0312 399.502C80.2387 398.84 80.4462 398.178 80.6599 397.496C81.6309 394.289 82.0312 391.905 82.0312 388.502C78.4012 387.512 74.7713 386.522 71.0312 385.502C70.165 386.719 69.2987 387.935 68.4062 389.189C64.3189 394.585 60.3661 399.012 53.3711 400.408C46.7065 400.675 40.0761 398.806 34.9062 394.564C29.6628 389.673 29.0242 383.769 28.7812 376.877C28.9519 365.527 32.423 356.11 40.4688 348.064C46.8543 344.171 52.8926 343.949 60.0312 345.502C65.5605 347.503 70.4283 350.225 73.0938 355.674C74.2291 359.098 74.4544 362.215 74.6562 365.814C74.7684 367.696 74.7684 367.696 74.8828 369.615C74.9318 370.568 74.9808 371.52 75.0312 372.502C75.6345 372.634 76.2378 372.767 76.8594 372.904C77.6586 373.081 78.4578 373.257 79.2812 373.439C80.4646 373.7 80.4646 373.7 81.6719 373.966C83.8001 374.449 85.9151 374.969 88.0312 375.502C88.2633 374.341 88.4953 373.181 88.7344 371.986C90.1715 365.526 92.166 359.233 94.1146 352.914C95.2429 349.254 96.3599 345.591 97.4766 341.927C97.6969 341.205 97.9172 340.483 98.1443 339.738C100.896 330.694 103.484 321.605 106.031 312.502C104.596 311.996 103.158 311.497 101.719 311.002C100.918 310.723 100.118 310.445 99.293 310.158C96.9436 309.362 96.9436 309.362 94.0312 309.502C92.5869 311.105 92.5869 311.105 91.2812 313.189C87.6134 318.335 83.4342 322.267 77.0312 323.502C69.6565 324.506 64.2057 322.529 58.0312 318.502C52.5779 313.457 51.9363 306.89 51.6562 299.814C51.8938 289.36 54.7047 280.923 61.9336 273.306C67.7063 268.34 72.8678 267.177 80.332 267.646C86.638 268.637 90.8523 271.751 95.0312 276.502C97.5231 280.201 97.6898 284.423 98.1562 288.752C98.2858 289.869 98.2858 289.869 98.418 291.009C98.6291 292.839 98.8311 294.67 99.0312 296.502C102.991 297.492 106.951 298.482 111.031 299.502C111.263 298.341 111.495 297.181 111.734 295.986C113.172 289.526 115.166 283.233 117.115 276.914C118.243 273.254 119.36 269.591 120.477 265.927C120.697 265.205 120.917 264.483 121.144 263.738C123.896 254.694 126.484 245.605 129.031 236.502C124.741 235.512 120.451 234.522 116.031 233.502C115.371 235.152 114.711 236.802 114.031 238.502C110.843 242.93 108.27 245.818 103.031 247.502C95.3641 248.312 88.3367 248.343 82.0312 243.502C77.3679 239.245 75.3072 234.494 74.7305 228.24C74.6823 214.166 77.3516 205.512 87.1172 195.326C90.4996 192.102 93.7175 191.372 98.2812 191.189C105.093 191.404 110.839 192.879 115.906 197.627C119.755 202.31 120.255 207.719 120.707 213.598C120.903 216.066 120.903 216.066 122.031 219.502C125.611 221.588 129.052 222.526 133.031 223.502C135.387 217.464 137.316 211.387 139.098 205.158C139.377 204.189 139.657 203.221 139.945 202.223C140.532 200.186 141.118 198.149 141.702 196.112C142.591 193.01 143.486 189.91 144.381 186.81C144.953 184.822 145.526 182.834 146.098 180.845C146.495 179.469 146.495 179.469 146.9 178.064C148.379 172.898 149.76 167.723 151.031 162.502C147.071 161.512 143.111 160.522 139.031 159.502C138.371 161.152 137.711 162.802 137.031 164.502C132.576 169.538 127.864 173.648 121.031 174.502C112.978 174.706 107.483 171.767 101.719 166.314C96.7876 158.096 96.1805 149.921 98.1562 140.689C100.592 131.594 105.027 123.754 113.031 118.502C119.248 116.429 126.122 116.802 132.145 119.392C136.642 122.037 140.035 125.554 142.406 130.189C143.363 135.259 143.715 140.357 144.031 145.502C145.467 146.007 146.905 146.506 148.344 147.002C149.144 147.28 149.945 147.559 150.77 147.845C153.119 148.641 153.119 148.641 156.031 148.502C159.481 137.57 162.919 126.635 166.344 115.696C166.975 113.681 167.607 111.666 168.239 109.651C169.239 106.457 170.231 103.261 171.219 100.064C171.51 99.1379 171.8 98.2116 172.1 97.2573C172.36 96.4111 172.619 95.5649 172.887 94.6931C173.11 93.9732 173.333 93.2533 173.563 92.5117C174.182 90.1963 174.182 90.1963 174.031 86.5017C172.814 86.151 171.597 85.8004 170.344 85.4392C169.659 85.2419 168.975 85.0447 168.27 84.8415C165.459 84.4148 163.73 84.5698 161.031 85.5017C158.769 87.6848 158.769 87.6848 156.719 90.3767C152.89 94.7999 149.946 97.7281 144.031 98.5017C137.155 98.7438 130.604 96.8022 125.492 92.0798C119.159 84.8946 119.543 77.6326 120.031 68.5017C121.168 58.9108 125.818 50.8533 133.164 44.779C138.337 41.2402 145.342 41.8623 151.285 42.8923C157.063 44.6561 160.917 48.3951 164.031 53.5017C165.98 59.0452 166.285 64.6737 166.031 70.5017C166.707 70.6344 167.382 70.7672 168.078 70.904C168.97 71.0806 169.862 71.2572 170.781 71.4392C171.663 71.6132 172.545 71.7872 173.453 71.9665C175.664 72.4253 177.846 72.935 180.031 73.5017C180.341 72.6973 180.65 71.8929 180.969 71.0642C182.031 68.5017 182.031 68.5017 183.031 67.5017C183.237 66.2848 183.444 65.0679 183.656 63.8142C187.618 45.3843 201.891 28.2577 217.324 18.1227C248.055 -0.27997 286.601 0.314238 315.691 22.1774Z" stroke="#F2F2F2" stroke-width="10" mask="url(#path-4-outside-1_5_11)"/>
</svg>
